<svg width="66" height="80" viewBox="0 0 66 80" fill="none" xmlns="http://www.w3.org/2000/svg">
<path d="M52.744 19.4128C52.744 19.5313 52.6047 19.5935 52.5128 19.5165C51.6563 18.7965 50.7672 18.1594 49.8633 17.6054C49.8574 17.6054 49.8485 17.5965 49.8426 17.5935C49.6618 17.1165 49.4899 16.6424 49.1935 16.1565C47.9044 14.0528 45.7261 13.1017 43.3907 13.1017C43.0796 13.1017 42.7654 13.1195 42.4513 13.1521C42.4009 13.158 42.3505 13.1343 42.3209 13.0929C41.8882 12.438 41.4051 11.7832 40.8568 11.1136C40.7946 11.0366 40.8272 10.9181 40.9191 10.8884C41.8496 10.5803 42.7891 10.4381 43.7108 10.4381C48.4852 10.4381 52.7529 14.2839 52.741 19.4128H52.744Z" fill="#A29A84"/>
<path d="M57.0095 51.0832C56.965 51.3528 56.9087 51.6225 56.8406 51.8891C56.2864 54.135 54.9468 56.3987 52.8248 58.3661C52.238 58.9053 51.592 59.4386 50.9015 59.9394C50.3828 60.3186 49.8405 60.6801 49.2774 61.012C47.7689 61.9097 46.133 62.6179 44.503 62.9704C44.3963 62.9941 44.3074 62.8875 44.3429 62.7838C44.4792 62.4016 44.6037 62.0164 44.7104 61.6282C44.7163 61.6045 44.7252 61.5779 44.7341 61.5512C44.8645 61.0623 44.9742 60.5675 45.0542 60.0638C45.0631 60.0134 45.0957 59.972 45.1461 59.9542C45.7655 59.7438 46.5656 59.4357 46.9806 59.2194C49.6982 57.7853 52.6648 55.3883 53.8799 52.5025C53.8947 52.4758 53.9036 52.4521 53.9125 52.4254C54.3452 51.3736 54.5438 50.2595 54.4074 49.104C54.3985 49.027 54.3867 48.9529 54.3778 48.8758C54.2622 48.1085 53.9984 47.3233 53.5628 46.5292C52.0869 43.8448 48.7528 43.0715 45.9137 42.7011C45.8573 42.6952 45.8099 42.6537 45.7951 42.6004C45.6084 41.9337 45.4928 41.2552 45.4543 40.5767C45.4454 40.4997 45.4424 40.4226 45.4395 40.3456C45.4484 40.3397 45.4543 40.3397 45.4632 40.3367C45.5906 40.3012 45.7921 40.2834 46.0322 40.2834C46.5034 40.2834 47.1258 40.3426 47.6622 40.4108C47.9467 40.4463 48.2075 40.4849 48.409 40.5175C48.4802 40.5293 48.5424 40.5412 48.5957 40.5471C53.2931 41.3945 56.0611 44.0759 56.8821 47.3529C56.9058 47.4536 56.9295 47.5573 56.9532 47.6581C57.1873 48.7573 57.2081 49.9129 57.0125 51.0862L57.0095 51.0832Z" fill="#A29A84"/>
<path d="M43.5856 69.2549C42.7143 69.2549 41.8282 69.1423 40.9539 68.9082C40.8561 68.8816 40.8205 68.7601 40.8857 68.6801C41.1317 68.3838 41.3599 68.0934 41.5763 67.809L41.5822 67.8001L41.6326 67.732C41.9111 67.3616 42.1719 66.9883 42.4209 66.612C43.6004 66.766 44.9933 66.5349 45.2423 66.4846C47.3227 66.0787 48.6919 64.8253 49.5929 63.0209C49.7263 62.7483 49.8448 62.0639 49.8418 62.0639C49.8596 62.052 51.0451 61.3143 51.6111 60.8995C51.8512 60.7276 52.0853 60.5469 52.3165 60.3661C52.4054 60.295 52.5358 60.3543 52.5447 60.4669C52.8914 65.7913 48.443 69.2549 43.5915 69.2549H43.5856Z" fill="#A29A84"/>
<path d="M37.799 15.8488L36.8477 16.8029C33.2646 21.4191 33.4484 27.5849 36.5809 32.3552C36.6106 32.4056 36.6106 32.4708 36.572 32.5182C36.332 32.8115 35.4696 33.8515 34.9183 34.4352C34.862 34.4974 34.7613 34.4944 34.7079 34.4293C33.7566 33.3034 33.2054 32.3937 32.8853 31.7389C32.6541 31.2589 32.5356 30.7404 32.5296 30.213C32.5208 30.7434 32.3992 31.2619 32.171 31.7389C31.851 32.3908 31.3027 33.3034 30.3484 34.4293C30.2951 34.4944 30.1943 34.4974 30.138 34.4352C29.5897 33.8515 28.7243 32.8145 28.4843 32.5182C28.4487 32.4708 28.4458 32.4056 28.4784 32.3552C31.6109 27.5849 31.7917 21.4191 28.2087 16.8029L27.2573 15.8488C27.2099 15.8014 27.201 15.7273 27.2366 15.671C27.607 15.1081 28.0249 14.5362 28.4932 13.9674C28.5406 13.9081 28.591 13.8459 28.6414 13.7896C28.671 13.754 28.7184 13.7303 28.7688 13.7392C29.5897 13.8844 30.8996 15.4962 31.2849 16.0177C31.2849 16.0177 31.8628 16.8325 32.2896 17.9317C32.4378 18.3169 32.5148 18.7288 32.5237 19.1406C32.5326 18.7288 32.6097 18.3169 32.7578 17.9317C33.1846 16.8325 33.7596 16.0177 33.7596 16.0177C34.1419 15.4962 35.4548 13.8874 36.2757 13.7392C36.3231 13.7303 36.3705 13.754 36.4031 13.7896C36.4535 13.8488 36.5039 13.9111 36.5513 13.9674C37.0196 14.5362 37.4404 15.1081 37.8079 15.671C37.8434 15.7273 37.8346 15.8014 37.7901 15.8488H37.799Z" fill="#A29A84"/>
<path d="M59.4854 50.0155C59.1831 50.2022 58.8334 50.454 58.4777 50.5933C58.3799 50.6318 58.2792 50.5548 58.2881 50.4481C58.3681 49.5622 58.3414 48.6881 58.1992 47.8407C58.1903 47.7933 58.2051 47.7489 58.2406 47.7163C58.9608 47.0733 60.2115 46.0126 60.5286 45.58C63.2492 41.9001 62.6565 35.8054 59.2216 32.7506C58.9401 32.5017 57.4671 31.3906 56.9781 31.3906C56.9278 31.3906 56.8863 31.4054 56.8596 31.4291C56.1542 35.358 52.7787 38.1876 49.006 39.1594C48.9793 39.1683 48.9467 39.1742 48.9141 39.1831C48.5822 39.2631 48.2473 39.3194 47.9094 39.352C45.66 39.5653 45.4703 39.269 45.4703 39.269V39.1238L45.4881 38.9698V38.949C45.494 38.8987 45.5 38.8483 45.5059 38.7979V38.7772L45.5118 38.7564C45.5177 38.712 45.5237 38.6705 45.5326 38.629C45.5326 38.629 45.5326 38.6083 45.5326 38.6024L45.5504 38.5105V38.4868C45.5711 38.3713 45.5889 38.2587 45.6126 38.1461C45.6363 38.0276 45.6659 37.8972 45.7045 37.752L45.7104 37.7283L45.7163 37.7016C45.7222 37.6661 45.7341 37.6305 45.743 37.595L45.7519 37.5713L45.7578 37.5505C45.7815 37.4587 45.8052 37.3757 45.8289 37.3076L45.8349 37.2957V37.2839L45.8526 37.2365C45.8704 37.1831 45.8852 37.1298 45.906 37.0765C48.4844 36.8276 51.2761 35.8735 52.9031 33.7906C53.4544 33.0854 53.8426 32.3743 54.0797 31.6632C54.0916 31.6366 54.1004 31.6099 54.1064 31.5832L54.1508 31.441V31.4321C54.2012 31.2721 54.2397 31.1121 54.2753 30.9521C54.3761 30.481 54.4116 30.0129 54.3938 29.5507C54.3879 29.3877 54.3731 29.2277 54.3553 29.0647V29.0499C54.2842 28.4485 54.1271 27.8559 53.8989 27.2781C53.8871 27.2514 53.8752 27.2248 53.8663 27.2011C52.4082 23.6456 48.2324 20.6145 44.9635 19.2041C44.9221 19.1864 44.8954 19.1508 44.8835 19.1064C44.7768 18.5967 44.6464 18.099 44.4983 17.6131L44.4834 17.5686L44.2019 16.8664C44.1604 16.7657 44.2463 16.656 44.353 16.6738C46.0393 16.9494 47.7227 17.6782 49.2519 18.6145C50.304 19.2575 51.282 19.9982 52.1504 20.7567C52.5919 21.1419 53.0424 21.5656 53.4781 22.0189C55.2414 23.8411 56.8211 26.1463 57.0878 28.564C66.4499 31.6869 67.9584 44.8215 59.4972 50.0066L59.4854 50.0155Z" fill="#A29A84"/>
<path d="M53.0045 51.4242L52.8623 51.7471C51.7835 51.6494 50.9181 51.4746 50.7492 51.4479C50.7284 51.4479 50.7225 51.4479 50.7225 51.4479C47.4092 51.0005 43.9654 48.1857 42.6614 45.1547C39.2829 37.3 44.2144 28.2275 52.9541 28.2127C53.049 28.5208 53.1171 28.826 53.1557 29.1282V29.143L53.1645 29.2142C53.1823 29.3564 53.1912 29.4808 53.1942 29.5964C53.212 29.9667 53.1823 30.3253 53.1112 30.6719C49.3088 30.8467 46.5349 32.9978 45.2309 35.9489C45.1983 36.0259 45.1627 36.1059 45.1301 36.1829C45.0768 36.3103 45.0264 36.4437 44.979 36.574C44.9316 36.7044 44.8901 36.8407 44.8486 36.9711C44.813 37.0777 44.7804 37.1844 44.7537 37.294C44.733 37.3592 44.7182 37.4214 44.7034 37.4896C44.6648 37.6407 44.6263 37.7948 44.5967 37.9518C44.57 38.097 44.5433 38.2422 44.5196 38.3874C44.5196 38.3962 44.5196 38.4051 44.5196 38.414C44.5048 38.4911 44.4959 38.5651 44.487 38.6451C44.4752 38.7222 44.4663 38.7962 44.4603 38.8762C44.4514 38.9533 44.4426 39.0333 44.4366 39.1103C44.4307 39.1873 44.4248 39.2673 44.4188 39.3444C44.4129 39.4273 44.41 39.5103 44.41 39.5933C44.404 39.6703 44.4011 39.7473 44.4011 39.8244V39.8362C44.4011 39.8984 44.4011 39.9577 44.4011 40.017V40.0318C44.4011 40.2718 44.4129 40.5147 44.4307 40.7547C44.4989 41.6791 44.6856 42.6184 45.0057 43.5517C45.0057 43.5576 45.0057 43.5636 45.0116 43.5695C45.0383 43.6465 45.0649 43.7236 45.0946 43.8006C46.0281 46.2628 48.1856 48.1442 50.7729 48.7576C51.8991 49.0242 52.5362 49.0924 53.212 49.1546C53.2179 49.1813 53.2209 49.2138 53.2238 49.2405C53.3068 49.9605 53.2357 50.6953 53.0075 51.4301L53.0045 51.4242Z" fill="#A29A84"/>
<path d="M12.3141 19.4128C12.3141 19.5313 12.4534 19.5935 12.5452 19.5165C13.4017 18.7965 14.2908 18.1594 15.1947 17.6054C15.2007 17.6054 15.2096 17.5965 15.2155 17.5935C15.3963 17.1165 15.5682 16.6424 15.8645 16.1565C17.1537 14.0528 19.332 13.1017 21.6673 13.1017C21.9785 13.1017 22.2926 13.1195 22.6068 13.1521C22.6572 13.158 22.7076 13.1343 22.7372 13.0929C23.1699 12.438 23.653 11.7832 24.2012 11.1136C24.2635 11.0366 24.2309 10.9181 24.139 10.8884C23.2084 10.5803 22.2689 10.4381 21.3472 10.4381C16.5728 10.4381 12.3052 14.2839 12.317 19.4128H12.3141Z" fill="#A29A84"/>
<path d="M8.05127 51.0832C8.09573 51.3528 8.15204 51.6225 8.2202 51.8891C8.7744 54.135 10.114 56.3987 12.2359 58.3661C12.8227 58.9053 13.4688 59.4386 14.1593 59.9394C14.678 60.3186 15.2203 60.6801 15.7834 61.012C17.2919 61.9097 18.9278 62.6179 20.5578 62.9704C20.6645 62.9941 20.7534 62.8875 20.7179 62.7838C20.5815 62.4016 20.4571 62.0164 20.3504 61.6282C20.3444 61.6045 20.3355 61.5779 20.3267 61.5512C20.1963 61.0623 20.0866 60.5675 20.0066 60.0638C19.9977 60.0134 19.9651 59.972 19.9147 59.9542C19.2953 59.7438 18.4951 59.4357 18.0802 59.2194C15.3626 57.7853 12.396 55.3883 11.1809 52.5025C11.1661 52.4758 11.1572 52.4521 11.1483 52.4254C10.7156 51.3736 10.517 50.2595 10.6533 49.104C10.6622 49.027 10.6741 48.9529 10.683 48.8758C10.7986 48.1085 11.0623 47.3233 11.498 46.5292C12.9739 43.8448 16.308 43.0715 19.1471 42.7011C19.2034 42.6952 19.2509 42.6537 19.2657 42.6004C19.4524 41.9337 19.568 41.2552 19.6065 40.5767C19.6154 40.4997 19.6183 40.4226 19.6213 40.3456C19.6124 40.3397 19.6065 40.3397 19.5976 40.3367C19.4702 40.3012 19.2686 40.2834 19.0286 40.2834C18.5574 40.2834 17.935 40.3426 17.3986 40.4108C17.1141 40.4463 16.8533 40.4849 16.6517 40.5175C16.5806 40.5293 16.5184 40.5412 16.465 40.5471C11.7677 41.3945 8.99964 44.0759 8.17871 47.3529C8.155 47.4536 8.13129 47.5573 8.10758 47.6581C7.87345 48.7573 7.85271 49.9129 8.04831 51.0862L8.05127 51.0832Z" fill="#A29A84"/>
<path d="M21.4708 69.2549C22.3421 69.2549 23.2282 69.1423 24.1025 68.9082C24.2003 68.8816 24.2359 68.7601 24.1707 68.6801C23.9247 68.3838 23.6965 68.0934 23.4801 67.809L23.4742 67.8001L23.4238 67.732C23.1453 67.3616 22.8844 66.9883 22.6355 66.612C21.456 66.766 20.0631 66.5349 19.8141 66.4846C17.7336 66.0787 16.3644 64.8253 15.4635 63.0209C15.3301 62.7483 15.2116 62.0639 15.2146 62.0639C15.1968 62.052 14.0113 61.3143 13.4453 60.8995C13.2052 60.7276 12.9711 60.5469 12.7399 60.3661C12.651 60.295 12.5206 60.3543 12.5117 60.4669C12.165 65.7913 16.6134 69.2549 21.4649 69.2549H21.4708Z" fill="#A29A84"/>
<path d="M34.3879 40.2134C39.0882 36.1957 43.5959 31.0432 44.0257 24.5515C44.1442 22.7589 44.0523 21.1441 43.7678 19.6597C43.6552 19.076 43.5159 18.516 43.347 17.9738L42.3957 15.5946C42.3334 15.4672 42.2682 15.3457 42.203 15.2212C42.0252 14.8864 41.8385 14.5576 41.637 14.2316C40.8783 13.002 39.9596 11.8317 38.8927 10.6613C38.291 10.0006 37.642 9.33985 36.9515 8.67023C36.3913 8.12802 35.1585 7.31026 34.7584 6.79767V6.79175C34.5954 6.59027 34.6665 6.29101 34.9006 6.18731C35.7482 5.80806 36.7351 5.17696 37.6805 5.17696C37.9917 5.17696 38.2999 5.24807 38.5933 5.41695C38.8067 5.53547 38.943 5.59176 38.9312 5.81991C38.9312 5.88806 38.8778 5.94435 38.8126 5.95917C37.0107 6.35323 38.0065 8.55172 39.5654 8.55172C39.6158 8.55172 39.6662 8.55172 39.7195 8.54579C41.9926 8.33543 42.3512 5.1414 40.905 3.66883C40.0751 2.82144 39.1238 2.51922 38.134 2.51922C36.8863 2.51922 35.5823 3.00218 34.385 3.48513C34.7465 1.37257 33.8604 0.225922 32.8498 0.0244441C32.6868 -0.00814802 32.3667 -0.00814802 32.2067 0.0244441C31.1931 0.225922 30.307 1.37257 30.6686 3.48513C29.4712 2.99921 28.1672 2.51922 26.9196 2.51922C25.9297 2.51922 24.9784 2.82144 24.1486 3.66883C22.7023 5.1414 23.0609 8.33543 25.334 8.54579C25.3874 8.55172 25.4377 8.55172 25.4881 8.55172C27.047 8.55172 28.0428 6.35323 26.2409 5.95917C26.1757 5.94435 26.1253 5.88806 26.1223 5.81991C26.1134 5.59176 26.2498 5.53547 26.4602 5.41695C26.7536 5.2451 27.0618 5.17696 27.373 5.17696C28.3184 5.17696 29.3023 5.81102 30.1529 6.18731C30.387 6.29398 30.4581 6.59027 30.2981 6.79175V6.79767C29.895 7.31026 28.6622 8.12506 28.102 8.67023C27.4086 9.33985 26.7625 10.0006 26.1609 10.6613C25.0969 11.8287 24.1782 12.9991 23.4165 14.2316C23.215 14.5576 23.0283 14.8864 22.8505 15.2212C22.7823 15.3457 22.7201 15.4672 22.6578 15.5946L21.7065 17.9738C21.5376 18.516 21.3983 19.079 21.2857 19.6597C21.0041 21.1441 20.9093 22.7589 21.0278 24.5515C21.4605 31.0462 25.9682 36.1957 30.6656 40.2134C24.8658 45.0697 20.1625 51.0133 21.0604 59.0695C21.0604 59.102 21.0693 59.1346 21.0723 59.1672C21.0871 59.2946 21.1019 59.4161 21.1227 59.5406C21.2057 60.1272 21.3242 60.6961 21.4724 61.2472C21.4724 61.259 21.4813 61.2709 21.4842 61.2798C21.6472 61.8783 21.8458 62.459 22.077 63.022C22.1659 63.2531 22.2666 63.4783 22.3704 63.7035C22.5037 63.9968 22.6519 64.2871 22.8001 64.5686C23.2595 65.419 23.79 66.2367 24.3738 67.016C24.3797 67.0219 24.3856 67.0308 24.3916 67.0367C24.6761 67.4219 24.9813 67.7982 25.2955 68.1686C26.8277 69.973 28.6325 71.5848 30.47 73.0603L31.9548 74.3314C32.0763 74.4351 32.0852 74.6188 31.9755 74.7374L31.5784 75.161C31.4747 75.2707 31.3057 75.2796 31.1902 75.1818L29.6668 73.8692C29.5779 73.7922 29.4505 73.7803 29.3468 73.8366C28.6355 74.2277 27.7998 74.524 27.0677 74.524C26.8484 74.524 26.638 74.4974 26.4454 74.4411C25.0021 74.0055 26.8692 73.3359 26.9788 73.1611C27.4234 72.4381 26.7566 71.33 25.983 71.1315C25.7637 71.0752 25.5563 71.0485 25.3577 71.0485C22.6134 71.0485 21.8962 76.1655 25.7045 77.0751C26.072 77.161 26.4276 77.1995 26.7773 77.1995C28.0457 77.1995 29.2223 76.7106 30.4641 76.3729C30.3663 78.0588 30.5115 79.6084 32.2008 79.7802C32.3608 79.798 32.6601 79.798 32.8202 79.7802C34.5094 79.6084 34.6546 78.0588 34.5569 76.3729C35.7986 76.7106 36.9752 77.1995 38.2436 77.1995C38.5933 77.1995 38.949 77.164 39.3164 77.0751C43.1247 76.1684 42.4075 71.0485 39.6632 71.0485C39.4646 71.0485 39.2572 71.0752 39.0379 71.1315C38.2644 71.33 37.5975 72.4411 38.0421 73.1611C38.1517 73.3389 40.0188 74.0055 38.5755 74.4411C38.3829 74.4974 38.1725 74.524 37.9532 74.524C36.7737 74.524 35.3215 73.7537 34.5569 73.0603C36.3943 71.5878 38.1992 69.973 39.7314 68.1686C40.0485 67.7982 40.3508 67.4249 40.6353 67.0367C40.6412 67.0308 40.6471 67.0219 40.6531 67.016C41.2399 66.2338 41.7674 65.419 42.2267 64.5686C42.3749 64.2842 42.5201 63.9968 42.6565 63.7064C42.7602 63.4783 42.861 63.2531 42.9499 63.022C43.181 62.459 43.3826 61.8783 43.5426 61.2798C43.5426 61.2679 43.5515 61.2561 43.5545 61.2472C43.7026 60.6961 43.8212 60.1272 43.9042 59.5406C43.9249 59.4161 43.9397 59.2946 43.9545 59.1672C43.9545 59.1346 43.9634 59.102 43.9664 59.0695C44.8644 51.0133 40.1611 45.0726 34.3612 40.2134H34.3879ZM27.6338 33.3691C27.453 33.138 27.2811 32.9099 27.1152 32.6758C24.3916 28.8833 23.0431 24.353 24.3086 19.316C24.6287 18.0449 25.1503 16.8568 25.8052 15.7398C26.3239 14.8598 26.9225 14.0213 27.5775 13.2242C28.9674 11.5117 30.5945 9.97095 32.1385 8.52209C32.1919 8.47172 32.26 8.44505 32.3312 8.44505H32.7313C32.8053 8.44505 32.8705 8.47172 32.9239 8.52209C34.4679 9.97392 36.095 11.5146 37.4849 13.2242C38.1369 14.0213 38.7385 14.8598 39.2572 15.7398C39.9121 16.8568 40.4337 18.0449 40.7538 19.316C42.0163 24.353 40.6708 28.8833 37.9473 32.6758C37.7813 32.9099 37.6094 33.141 37.4286 33.3691C36.1305 35.0372 34.5717 36.5483 32.8557 37.8905H32.8498C32.6661 38.0416 32.4023 38.0416 32.2156 37.8964L32.2067 37.8905C30.4907 36.5483 28.9319 35.0372 27.6338 33.3691ZM32.7698 70.9685C32.6275 71.0663 32.4349 71.0663 32.2897 70.9685C26.6825 67.0427 22.7379 61.4931 24.1189 54.2429C24.9043 50.1244 28.3569 45.5941 31.5162 42.9482C31.7029 42.7941 31.9251 42.5749 32.1622 42.4179C32.1622 42.4179 32.1682 42.4179 32.1682 42.4119C32.3934 42.2668 32.6631 42.2668 32.8883 42.4119C32.8883 42.4119 32.8883 42.4119 32.8942 42.4179C33.1313 42.5749 33.3536 42.7941 33.5403 42.9482C36.6996 45.5941 40.1522 50.1244 40.9376 54.2429C42.3186 61.4931 38.374 67.0456 32.7668 70.9685H32.7698Z" fill="#A29A84"/>
<path d="M37.7674 64.3785C37.3495 65.0155 36.8694 65.6377 36.3389 66.2481C36.2885 66.3014 36.2056 66.3133 36.1433 66.2688C35.3906 65.7029 34.7593 64.9948 34.214 64.2126C33.8258 63.6555 33.2864 62.7222 32.9248 62.0793C32.6759 61.6319 32.5395 61.1311 32.5336 60.6215C32.5247 61.1311 32.3914 61.6289 32.1394 62.0793C31.7779 62.7222 31.2415 63.6555 30.8503 64.2126C30.305 64.9948 29.6767 65.7029 28.9209 66.2688C28.8617 66.3133 28.7757 66.3014 28.7283 66.2481C28.1919 65.6407 27.7147 65.0155 27.2969 64.3785C27.2583 64.3192 27.2732 64.2422 27.3235 64.1977C28.3756 63.3118 29.1788 61.8126 29.7063 60.5771C31.6238 56.0882 31.0962 52.0261 28.4616 48.121C28.429 48.0736 28.429 48.0084 28.4616 47.961C28.9684 47.2765 29.5048 46.6277 30.0501 46.0232C30.1064 45.961 30.2012 45.961 30.2575 46.0232C30.9184 46.7491 31.686 48.0528 32.1394 48.8647C32.3884 49.3091 32.5218 49.8098 32.5306 50.3194C32.5366 49.8098 32.6699 49.3121 32.9189 48.8647C33.3723 48.0558 34.1429 46.7491 34.8008 46.0232C34.8571 45.961 34.9519 45.961 35.0082 46.0232C35.5536 46.6277 36.0929 47.2795 36.5968 47.961C36.6323 48.0084 36.6323 48.0736 36.5968 48.121C33.965 52.0261 33.4375 56.0912 35.352 60.5771C35.8825 61.8126 36.6797 63.3118 37.7348 64.1977C37.7881 64.2422 37.803 64.3222 37.7615 64.3785H37.7674Z" fill="#A29A84"/>
<path d="M5.57127 50.0155C5.87356 50.2022 6.22327 50.454 6.57891 50.5933C6.67671 50.6318 6.77747 50.5548 6.76858 50.4481C6.68856 49.5622 6.71524 48.6881 6.85749 47.8407C6.86638 47.7933 6.85156 47.7489 6.816 47.7163C6.09584 47.0733 4.84518 46.0126 4.52807 45.58C1.80745 41.9001 2.40018 35.8054 5.83504 32.7506C6.11658 32.5017 7.58951 31.3906 8.07851 31.3906C8.12889 31.3906 8.17038 31.4054 8.19705 31.4291C8.9024 35.358 12.278 38.1876 16.0507 39.1594C16.0774 39.1683 16.11 39.1742 16.1426 39.1831C16.4745 39.2631 16.8094 39.3194 17.1472 39.352C19.3966 39.5653 19.5863 39.269 19.5863 39.269V39.1238L19.5685 38.9698V38.949C19.5626 38.8987 19.5567 38.8483 19.5507 38.7979V38.7772L19.5448 38.7564C19.5389 38.712 19.533 38.6705 19.5241 38.629C19.5241 38.629 19.5241 38.6083 19.5241 38.6024L19.5063 38.5105V38.4868C19.4855 38.3713 19.4678 38.2587 19.4441 38.1461C19.4203 38.0276 19.3907 37.8972 19.3522 37.752L19.3463 37.7283L19.3403 37.7016C19.3344 37.6661 19.3225 37.6305 19.3137 37.595L19.3048 37.5713L19.2988 37.5505C19.2751 37.4587 19.2514 37.3757 19.2277 37.3076L19.2218 37.2957V37.2839L19.204 37.2365C19.1862 37.1831 19.1714 37.1298 19.1507 37.0765C16.5723 36.8276 13.7805 35.8735 12.1535 33.7906C11.6023 33.0854 11.214 32.3743 10.9769 31.6632C10.9651 31.6366 10.9562 31.6099 10.9503 31.5832L10.9058 31.441V31.4321C10.8554 31.2721 10.8169 31.1121 10.7813 30.9521C10.6806 30.481 10.645 30.0129 10.6628 29.5507C10.6687 29.3877 10.6835 29.2277 10.7013 29.0647V29.0499C10.7725 28.4485 10.9295 27.8559 11.1577 27.2781C11.1696 27.2514 11.1814 27.2248 11.1903 27.2011C12.6484 23.6456 16.8242 20.6145 20.0931 19.2041C20.1346 19.1864 20.1613 19.1508 20.1731 19.1064C20.2798 18.5967 20.4102 18.099 20.5584 17.6131L20.5732 17.5686L20.8547 16.8664C20.8962 16.7657 20.8103 16.656 20.7036 16.6738C19.0173 16.9494 17.3339 17.6782 15.8047 18.6145C14.7526 19.2575 13.7746 19.9982 12.9063 20.7567C12.4647 21.1419 12.0142 21.5656 11.5786 22.0189C9.8152 23.8411 8.23558 26.1463 7.96885 28.564C-1.39327 31.6869 -2.90177 44.8215 5.55942 50.0066L5.57127 50.0155Z" fill="#A29A84"/>
<path d="M12.0538 51.4242L12.196 51.7471C13.2748 51.6494 14.1402 51.4746 14.3091 51.4479C14.3298 51.4479 14.3358 51.4479 14.3358 51.4479C17.6491 51.0005 21.0929 48.1857 22.3969 45.1547C25.7754 37.3 20.8439 28.2275 12.1041 28.2127C12.0093 28.5208 11.9411 28.826 11.9026 29.1282V29.143L11.8937 29.2142C11.8759 29.3564 11.8671 29.4808 11.8641 29.5964C11.8463 29.9667 11.8759 30.3253 11.9471 30.6719C15.7494 30.8467 18.5234 32.9978 19.8274 35.9489C19.86 36.0259 19.8955 36.1059 19.9281 36.1829C19.9815 36.3103 20.0319 36.4437 20.0793 36.574C20.1267 36.7044 20.1682 36.8407 20.2097 36.9711C20.2453 37.0777 20.2779 37.1844 20.3045 37.294C20.3253 37.3592 20.3401 37.4214 20.3549 37.4896C20.3934 37.6407 20.432 37.7948 20.4616 37.9518C20.4883 38.097 20.5149 38.2422 20.5387 38.3874C20.5387 38.3962 20.5387 38.4051 20.5387 38.414C20.5535 38.4911 20.5624 38.5651 20.5713 38.6451C20.5831 38.7222 20.592 38.7962 20.5979 38.8762C20.6068 38.9533 20.6157 39.0333 20.6216 39.1103C20.6276 39.1873 20.6335 39.2673 20.6394 39.3444C20.6453 39.4273 20.6483 39.5103 20.6483 39.5933C20.6542 39.6703 20.6572 39.7473 20.6572 39.8244V39.8362C20.6572 39.8984 20.6572 39.9577 20.6572 40.017V40.0318C20.6572 40.2718 20.6453 40.5147 20.6276 40.7547C20.5594 41.6791 20.3727 42.6184 20.0526 43.5517C20.0526 43.5576 20.0526 43.5636 20.0467 43.5695C20.02 43.6465 19.9933 43.7236 19.9637 43.8006C19.0302 46.2628 16.8726 48.1442 14.2854 48.7576C13.1592 49.0242 12.522 49.0924 11.8463 49.1546C11.8404 49.1813 11.8374 49.2138 11.8345 49.2405C11.7515 49.9605 11.8226 50.6953 12.0508 51.4301L12.0538 51.4242Z" fill="#A29A84"/>
</svg>
