<svg width="183" height="39" viewBox="0 0 183 39" fill="none" xmlns="http://www.w3.org/2000/svg">
<path d="M8.52818 31.567C8.91135 31.5332 9.21823 31.4764 9.44882 31.3966C9.70628 31.2848 9.93296 31.1608 10.1289 31.0247C10.3248 30.8885 10.5328 30.7217 10.753 30.524C11.0027 30.3237 11.326 30.1169 11.723 29.9037C12.2596 29.5889 12.6891 29.2391 13.0116 28.8542C13.3609 28.4372 13.65 28.0106 13.8788 27.5746C14.1051 27.109 14.33 26.6288 14.5536 26.1338C14.7772 25.6387 15.0732 25.1225 15.4416 24.585L17.9329 21.5134L19.1031 19.6278C19.4177 19.1545 19.6773 18.7305 19.8819 18.356C20.0838 17.952 20.275 17.5936 20.4552 17.2806C20.6329 16.9382 20.8119 16.6105 20.9922 16.2975C21.1994 15.9525 21.4213 15.6061 21.6579 15.2585C22.1043 14.5953 22.5572 14.0057 23.0167 13.4899C23.4735 12.9446 23.9411 12.3538 24.4196 11.7174L26.5689 8.80972C26.9156 8.36324 27.2246 7.99436 27.4959 7.70306C27.7673 7.41176 28.0819 6.93842 28.4399 6.28302C28.2665 6.00129 28.0073 5.75684 27.6622 5.54968C27.3172 5.34251 26.9882 5.14878 26.6752 4.96849C26.1455 4.68852 25.6315 4.5854 25.133 4.65912C24.6319 4.70336 24.1135 4.71944 23.5778 4.70734C23.192 4.7117 22.8505 4.71216 22.5531 4.70871C22.2532 4.67579 21.9264 4.67495 21.5727 4.70618C20.6 4.79207 19.757 5.00018 19.0435 5.33052C18.3301 5.66086 17.6566 6.10649 17.0229 6.66742C16.7949 6.77666 16.4664 6.92449 16.0373 7.1109C15.6376 7.29471 15.2419 7.52273 14.8501 7.79497C14.4583 8.0672 14.1293 8.37844 13.8632 8.72868C13.5971 9.07893 13.4836 9.47511 13.5226 9.91722C13.5564 10.3004 13.6505 10.6931 13.8049 11.0953C13.9566 11.4681 14.0533 11.8902 14.0949 12.3618C14.1079 12.5092 14.0941 12.6887 14.0533 12.9002C14.0421 13.1091 13.9706 13.3085 13.8388 13.4984C13.7365 13.6856 13.574 13.8633 13.3512 14.0315C13.1259 14.1702 12.8216 14.2565 12.4384 14.2904C12.2026 14.3112 11.9469 14.2744 11.6712 14.1799C11.4224 14.0533 11.171 13.8973 10.917 13.7118C10.6924 13.5237 10.4948 13.3035 10.324 13.0513C10.1532 12.799 10.0561 12.5403 10.0326 12.275C10.0066 11.9803 10.0222 11.6521 10.0794 11.2906L10.052 10.9812C9.96616 10.0085 10.191 9.02325 10.7267 8.02542C11.2919 7.02498 12.2424 6.18359 13.5782 5.50125C14.2656 4.87617 14.9352 4.38632 15.5871 4.03172C16.2364 3.64764 17.0543 3.32293 18.0408 3.05759L19.0863 2.78705C19.1157 2.78444 19.1452 2.78184 19.1747 2.77924C19.2016 2.74716 19.2297 2.72982 19.2592 2.72722C19.5488 2.64224 19.8409 2.58674 20.1356 2.56071C20.4278 2.50521 20.7347 2.44841 21.0563 2.3903C21.7931 2.32523 22.4736 2.29484 23.0978 2.29913C23.7488 2.27135 24.3903 2.30381 25.0223 2.39652C25.6838 2.48664 26.3517 2.65043 27.0262 2.88791C27.698 3.09592 28.4527 3.40058 29.2901 3.8019L29.571 3.95532C29.6967 4.03333 29.9243 4.0875 30.2537 4.11782C30.584 3.82132 30.8527 3.50054 31.0599 3.1555C31.2965 2.80786 31.4915 2.4936 31.645 2.21271C31.8253 1.89975 31.996 1.64704 32.1572 1.45458C32.3453 1.23004 32.572 1.10605 32.8373 1.08263C33.2205 1.04879 33.5187 1.23039 33.732 1.62741C33.9427 1.99496 34.0597 2.31137 34.0831 2.57664C34.156 3.40192 33.8778 4.28791 33.2485 5.2346C33.0387 5.55017 32.9469 5.85532 32.9729 6.15007C32.9859 6.29744 33.083 6.5562 33.2642 6.92635C33.4723 7.26443 33.6856 7.66145 33.9041 8.11742C34.152 8.57079 34.3718 9.0415 34.5634 9.52955C34.7819 9.98552 34.9081 10.4051 34.9419 10.7883C35.1267 12.8809 34.989 14.8536 34.5288 16.7062C34.066 18.5293 33.4147 20.2354 32.5748 21.8245C31.7323 23.3841 30.7736 24.8054 29.6987 26.0885C28.6507 27.3395 27.6205 28.4553 26.608 29.4358L25.5002 30.5139C24.6221 31.334 23.799 32.1047 23.031 32.826C22.263 33.5474 21.5019 34.1789 20.7477 34.7208C19.9936 35.2627 19.245 35.7001 18.5021 36.033C17.7618 36.3954 17.0085 36.6105 16.2422 36.6781C15.358 36.7562 14.6228 36.6726 14.0368 36.4273C13.4533 36.2115 12.9397 35.945 12.4958 35.6277C12.0814 35.3079 11.7151 35.0283 11.397 34.7891C11.0762 34.5204 10.7242 34.4029 10.3411 34.4368C10.0758 34.4602 9.8036 34.5733 9.52447 34.7762C9.07631 35.0831 8.54102 35.4126 7.91862 35.7646C7.32829 36.1434 6.72062 36.4942 6.09561 36.8167C5.4706 37.1392 4.85642 37.4162 4.25308 37.6477C3.67921 37.8766 3.17121 38.0106 2.7291 38.0496C2.13961 38.1017 1.53972 38.0359 0.929407 37.8521C0.351176 37.6952 0.0438417 37.4105 0.00740317 36.9979C-0.0394463 36.4673 0.136063 35.932 0.533931 35.3919C0.931798 34.8518 1.48094 34.3429 2.18136 33.8652C2.88178 33.3875 3.69056 32.9596 4.60771 32.5816C5.55434 32.2009 6.53955 31.9209 7.56334 31.7413L8.52818 31.567ZM16.6095 26.7097C16.5583 26.8033 16.4023 27.0547 16.1414 27.4639C15.8805 27.8731 15.6075 28.3131 15.3223 28.7838C15.0345 29.2251 14.7749 29.649 14.5435 30.0556C14.3415 30.4596 14.2457 30.7205 14.2562 30.8384C14.2796 31.1037 14.3888 31.3317 14.5839 31.5224C14.7763 31.6836 15.0278 31.8396 15.3381 31.9905C15.6459 32.1118 15.9818 32.2158 16.3459 32.3025C16.71 32.3891 17.0754 32.4905 17.4421 32.6067C17.9701 32.5303 18.5478 32.3457 19.1754 32.0526C19.8005 31.7301 20.451 31.3607 21.1272 30.9446C21.8007 30.4989 22.4582 30.0399 23.0997 29.5674C23.7681 29.0628 24.3787 28.5781 24.9318 28.1135C25.9547 27.2508 26.9121 26.3197 27.8041 25.3201C28.6934 24.291 29.4545 23.1545 30.0872 21.9104C30.7174 20.6369 31.2032 19.2425 31.5446 17.7271C31.8835 16.1823 32.0299 14.4762 31.9838 12.6089L32.0422 11.7572C31.9078 10.9077 31.6672 10.2012 31.3204 9.63771C31.0005 9.04217 30.6693 8.65556 30.3269 8.47787C29.8596 8.90528 29.4795 9.31015 29.1865 9.69247C28.8909 10.0453 28.5538 10.4315 28.1749 10.8511C27.96 11.1078 27.69 11.4138 27.3649 11.7692C27.0372 12.0952 26.7269 12.4494 26.4339 12.8317C26.1383 13.1845 25.8857 13.5187 25.6759 13.8343C25.4956 14.1473 25.4133 14.3922 25.4289 14.569C25.3101 14.9063 25.1567 15.1871 24.9686 15.4117C24.7805 15.6362 24.5898 15.8313 24.3965 15.9969C24.2327 16.1599 24.0836 16.3216 23.9492 16.4819C23.8123 16.6128 23.7516 16.7667 23.7672 16.9436C23.56 17.2886 23.3932 17.5855 23.2666 17.8343C23.167 18.0511 23.0525 18.2691 22.9234 18.4884C22.7942 18.7078 22.6356 18.9297 22.4475 19.1543C22.2889 19.3762 22.0605 19.6488 21.7623 19.9722C21.6522 20.071 21.5031 20.2327 21.315 20.4573C21.1564 20.6792 20.9843 20.9172 20.7988 21.1712C20.6402 21.3931 20.4816 21.6151 20.3229 21.837C20.1643 22.0589 20.0447 22.218 19.9641 22.3143L16.6095 26.7097Z" fill="#D85B31"/>
<path d="M30.8311 29.8649C30.87 29.2971 31.1353 28.7687 31.6268 28.2797C32.1157 27.7613 32.6622 27.2229 33.2664 26.6646C34.0206 26.1227 34.708 25.4976 35.3286 24.7893C35.9467 24.0515 36.6445 23.5444 37.4221 23.2678L38.6495 22.5356C38.9607 22.3596 39.2667 22.1246 39.5675 21.8307C39.8978 21.5342 40.1808 21.3756 40.4166 21.3548C41.0711 21.0296 41.7494 20.8063 42.4516 20.6849C43.1807 20.5314 43.9136 20.4222 44.6505 20.3571C45.2694 20.3024 45.8035 20.4632 46.2525 20.8394C46.7285 21.1835 46.9886 21.6061 47.0328 22.1072L47.0719 22.5493C47.0927 22.7851 47.2357 22.8913 47.501 22.8679C47.5894 22.8601 47.7745 22.7694 48.0562 22.596C48.3354 22.3932 48.6427 22.173 48.9781 21.9354C49.3136 21.6979 49.6356 21.4763 49.9442 21.2709C50.2502 21.0359 50.4756 20.8972 50.6204 20.8547L51.1834 20.6713C51.3603 20.6557 51.5007 20.7324 51.6048 20.9015C51.7088 21.0705 51.7699 21.2582 51.7881 21.4645C51.8064 21.6708 51.763 21.8529 51.6581 22.0106C51.5507 22.1389 51.4124 22.2551 51.2434 22.3592C51.1038 22.4606 50.9642 22.562 50.8247 22.6635C50.6825 22.7354 50.5846 22.8035 50.5308 22.8676L50.2005 23.1641C50.1277 23.3488 49.957 23.6015 49.6883 23.9223C49.4169 24.2136 49.1188 24.537 48.7937 24.8924C48.466 25.2184 48.1544 25.5578 47.8588 25.9106C47.5606 26.234 47.3322 26.5067 47.1736 26.7286L45.8864 28.8027C45.7304 29.0542 45.6576 29.2388 45.668 29.3567C45.6966 29.6809 45.8232 29.9371 46.0477 30.1252C46.2723 30.3133 46.5909 30.3891 47.0035 30.3527C47.2098 30.3345 47.5423 30.2308 48.0008 30.0418C48.4889 29.8502 49.0038 29.6265 49.5456 29.3707C50.0848 29.0855 50.624 28.8002 51.1632 28.515C51.6998 28.2003 52.1518 27.9376 52.5194 27.7269L53.111 27.3628C53.5618 27.0853 53.9562 26.8426 54.2943 26.6345C54.6618 26.4238 55.0077 26.3041 55.3319 26.2755C55.5677 26.2547 55.7619 26.2672 55.9145 26.3132C56.0939 26.327 56.198 26.4961 56.2266 26.8203C56.2145 27.356 55.8461 27.8935 55.1214 28.4328C54.3967 28.9721 53.565 29.4762 52.6262 29.9453C51.7168 30.4117 50.817 30.8179 49.9267 31.1639C49.0659 31.5072 48.4773 31.7374 48.1609 31.8545L47.7305 32.0262C47.3525 32.119 47.0041 32.2091 46.685 32.2967C46.366 32.3843 46.0444 32.4424 45.7202 32.471C44.836 32.5491 44.0714 32.4681 43.4264 32.228C42.8083 31.9559 42.4693 31.4808 42.4094 30.8029C42.399 30.685 42.4033 30.5658 42.4224 30.4453C42.4709 30.3222 42.49 30.2017 42.4796 30.0838C42.3591 30.0648 42.1835 30.0951 41.9529 30.1749C41.8056 30.1879 41.7158 30.181 41.6838 30.1541C41.0943 30.2062 40.5902 30.3843 40.1715 30.6886C39.7823 30.9904 39.3463 31.2665 38.8634 31.5171C37.753 32.0607 36.7431 32.5657 35.8337 33.0322C34.9513 33.4665 33.95 33.7332 32.83 33.8321C32.3289 33.8763 31.8712 33.7385 31.4568 33.4187C31.0398 33.0693 30.8066 32.6147 30.7571 32.0547C30.7467 31.9368 30.7363 31.8189 30.7259 31.701C30.7155 31.5831 30.7185 31.4491 30.7349 31.2992L30.8311 29.8649ZM35.2081 30.9933C35.9372 30.8398 36.83 30.5233 37.8868 30.0438C38.9409 29.5349 39.943 28.9414 40.893 28.2635C41.87 27.5534 42.6956 26.8121 43.37 26.0397C44.0444 25.2672 44.3517 24.5421 44.2918 23.8641C44.2658 23.5694 44.1136 23.3601 43.8354 23.2361C43.5545 23.0827 43.2961 23.0164 43.0603 23.0372C42.8245 23.058 42.519 23.1296 42.1436 23.2518C41.7951 23.342 41.4211 23.479 41.0214 23.6628C40.6192 23.8172 40.2061 24.017 39.7823 24.2624C39.3852 24.4757 39.0337 24.6998 38.7277 24.9347C38.3385 25.2364 38.0256 25.5611 37.7889 25.9087C37.5497 26.2269 37.2528 26.565 36.8983 26.9231L36.6044 27.1273C36.3816 27.2954 36.1185 27.5118 35.8151 27.7762C35.5386 28.0085 35.2807 28.2838 35.0415 28.602C34.7997 28.8906 34.5886 29.1915 34.4083 29.5044C34.2575 29.8148 34.1951 30.1173 34.2211 30.4121C34.2523 30.7658 34.5038 30.9218 34.9753 30.8802L35.2081 30.9933Z" fill="#D85B31"/>
<path d="M53.7291 28.1102C53.7239 28.0512 53.7495 28.0044 53.8058 27.9697C53.8301 27.9082 53.8825 27.8293 53.9631 27.7331C54.0437 27.6368 54.1634 27.4778 54.322 27.2558C54.4806 27.0339 54.6769 26.7344 54.911 26.3572C55.445 26.013 55.9616 25.6407 56.4609 25.2401C56.9576 24.8101 57.4985 24.3762 58.0837 23.9384L63.3134 20.0903C63.9548 19.6178 64.5547 19.1787 65.113 18.7729C65.7007 18.3646 66.3764 18.1118 67.1401 18.0147C67.9065 17.947 68.4206 18.0501 68.6824 18.324C68.9416 18.5685 69.1102 19.1328 69.1883 20.0171C69.217 20.3413 69.0332 20.9516 68.6371 21.848C68.2705 22.7418 67.7092 23.7864 66.9534 24.9819C66.9638 25.0998 67.0024 25.2004 67.0691 25.2836C67.5624 25.1509 68.1579 24.831 68.8557 24.3238C69.5509 23.7872 70.2982 23.335 71.0974 22.9674C71.3844 22.853 71.7237 22.6596 72.1156 22.3874C72.5074 22.1152 72.8992 21.8429 73.291 21.5707C73.7123 21.2959 74.1349 21.0358 74.5588 20.7904C74.9801 20.5156 75.3797 20.3317 75.7577 20.239L76.2882 20.1921C76.518 20.4392 76.7265 20.6138 76.9137 20.7161C77.1278 20.7863 77.2991 20.8752 77.4274 20.9826C77.5852 21.0875 77.7174 21.2392 77.824 21.4377C77.9281 21.6068 77.9996 21.9123 78.0386 22.3545C78.0248 22.5339 77.9411 22.7641 77.7877 23.045C77.6612 23.2938 77.5064 23.5599 77.3235 23.8434C77.1701 24.1243 77.0167 24.4052 76.8633 24.6861C76.7073 24.9375 76.6223 25.1529 76.6085 25.3324C76.7177 25.5603 76.8621 25.6813 77.0415 25.6951C78.1892 25.2373 79.2355 24.64 80.1804 23.903C81.1522 23.134 82.0662 22.385 82.9227 21.6558C83.7765 20.8972 84.594 20.231 85.375 19.657C86.1855 19.0805 87.0142 18.7103 87.8612 18.5464C88.6275 18.4787 89.2473 18.6022 89.7207 18.9168C90.2209 19.1994 90.4957 19.6207 90.5452 20.1807C90.5608 20.3576 90.4689 20.6627 90.2696 21.0962C90.0971 21.4976 89.899 21.9458 89.6754 22.4408C89.4518 22.9358 89.2416 23.4148 89.0449 23.8777C88.8776 24.338 88.8044 24.6861 88.8252 24.9219C88.8382 25.0693 88.8685 25.2448 88.9162 25.4485C88.9639 25.6522 89.0532 25.8226 89.1841 25.9595C89.7442 25.9101 90.3822 25.7349 91.0982 25.4341C91.8116 25.1037 92.5225 24.7439 93.2307 24.3546C93.9658 23.9333 94.642 23.5171 95.2592 23.1062C95.8738 22.6657 96.377 22.3094 96.7688 22.0372C96.8893 22.0562 96.9682 22.1087 97.0055 22.1945C97.0427 22.2803 97.0653 22.3674 97.0731 22.4559C97.0887 22.6327 96.9743 22.8507 96.7298 23.11C96.4828 23.3397 96.1794 23.6041 95.8197 23.9032C95.4599 24.2023 95.072 24.5188 94.6559 24.8526C94.2667 25.1543 93.923 25.4668 93.6248 25.7902C93.4852 25.8916 93.2157 26.0342 92.816 26.2181C92.4164 26.4019 92.1455 26.5298 92.0033 26.6017L91.504 27.0023C90.8495 27.3274 90.2072 27.6217 89.577 27.8853C88.9468 28.1489 88.2485 28.3145 87.4822 28.3822C87.3911 28.3605 87.2399 28.3293 87.0283 28.2886C86.8437 28.2158 86.6564 28.1135 86.4666 27.9818C86.2767 27.85 86.099 27.6875 85.9334 27.4942C85.7947 27.2688 85.7136 27.0235 85.6902 26.7582C85.6589 26.4045 85.6732 26.0616 85.733 25.7296C85.8223 25.395 85.9115 25.0604 86.0008 24.7257C86.1169 24.359 86.2184 23.9936 86.305 23.6295C86.3917 23.2654 86.4194 22.9065 86.3882 22.5528C86.3725 22.376 86.2616 22.2967 86.0553 22.3149C85.7605 22.3409 85.5299 22.4207 85.3635 22.5542C85.2239 22.6556 85.0293 22.8065 84.7797 23.0068L83.8253 23.8039L81.7721 25.2774C81.2728 25.6779 80.7601 26.0945 80.2339 26.5271C79.7051 26.9303 79.1321 27.3373 78.5149 27.7483L77.0859 28.721C76.0396 29.3184 75.1038 29.6535 74.2785 29.7264C73.748 29.7732 73.3115 29.7078 72.9691 29.5301C72.6561 29.3498 72.4814 29.0534 72.445 28.6407C72.4216 28.3755 72.4328 28.1665 72.4788 28.014C72.4709 27.9255 72.5143 27.7435 72.6087 27.4678C72.7032 27.1921 72.8098 26.8857 72.9286 26.5484C73.0768 26.2086 73.1968 25.8861 73.2887 25.581C73.378 25.2463 73.4148 24.9906 73.3992 24.8137C73.381 24.6074 73.136 24.5251 72.6645 24.5667C71.4716 24.8503 70.3144 25.3683 69.1926 26.1209C68.1004 26.8708 67.0697 27.645 66.1006 28.4435C65.1315 29.242 64.2603 29.9724 63.4871 30.6348C62.7433 31.2945 62.1248 31.6908 61.6315 31.8234C61.4712 31.6891 61.2692 31.5881 61.0256 31.5205C60.782 31.4529 60.6406 31.198 60.6016 30.7559C60.5886 30.6085 60.5916 30.4746 60.6107 30.3541L60.5755 29.9562C60.8399 29.2497 61.2637 28.4993 61.8471 27.7052C62.46 26.9085 63.0151 26.1317 63.5127 25.3749L64.9975 23.016C65.0729 22.8608 65.1631 22.7043 65.268 22.5465C65.4023 22.3861 65.463 22.2322 65.45 22.0849C65.4292 21.8491 65.3438 21.723 65.1938 21.7065C65.0412 21.6606 64.906 21.6428 64.7881 21.6532C64.3564 21.8101 63.8735 22.0607 63.3395 22.4049C62.8056 22.7491 62.2165 23.1427 61.5725 23.5857C60.9553 23.9967 60.283 24.4571 59.5557 24.9668C58.8553 25.4446 58.1254 25.9249 57.366 26.4078L56.3713 27.2531C56.0948 27.4854 55.8586 27.6697 55.6627 27.8058C55.4962 27.9393 55.3285 28.0581 55.1595 28.1621C54.9904 28.2661 54.8214 28.3702 54.6524 28.4742C54.4807 28.5488 54.2822 28.6554 54.0568 28.7941C53.9927 28.7404 53.9446 28.7001 53.9125 28.6732C53.8804 28.6464 53.8297 28.5766 53.7603 28.4639L53.7291 28.1102Z" fill="#D85B31"/>
<path d="M98.7076 18.7916C99.245 18.15 99.7876 17.5675 100.335 17.0438C100.881 16.4907 101.425 15.9228 101.967 15.3402C102.241 15.0784 102.456 14.8218 102.612 14.5704C102.798 14.3164 102.965 14.0195 103.113 13.6796C103.42 13.1179 103.773 12.5817 104.174 12.071C104.572 11.5309 104.955 10.9921 105.323 10.4546C105.697 9.97606 106.072 9.51224 106.448 9.06316C106.824 8.61409 107.199 8.15027 107.573 7.67172C107.868 7.31887 108.118 6.95519 108.323 6.58068C108.554 6.17409 108.818 5.79437 109.113 5.44152C109.57 4.89621 110.071 4.34699 110.616 3.79388C111.159 3.21128 111.735 2.6703 112.344 2.17093C112.954 1.67155 113.598 1.22852 114.277 0.841837C114.955 0.455155 115.659 0.185067 116.388 0.0315748C116.71 -0.0265293 116.964 -0.00444086 117.152 0.0978401C117.339 0.200119 117.472 0.366553 117.552 0.597143C117.659 0.795656 117.708 1.01411 117.699 1.25251C117.691 1.4909 117.635 1.70373 117.533 1.89099C117.145 2.54899 116.71 3.16668 116.226 3.74407C115.74 4.29198 115.255 4.85463 114.771 5.43202C114.234 6.07356 113.565 6.74155 112.765 7.43599C111.992 8.09836 111.336 8.75031 110.799 9.39185C109.649 10.8301 108.442 12.1396 107.18 13.3204C105.916 14.4718 104.66 15.7263 103.413 17.0839C102.817 17.7307 102.235 18.3761 101.668 19.0202C101.102 19.6644 100.553 20.3514 100.024 21.0814C99.7576 21.4316 99.5075 21.7953 99.2734 22.1724C99.0368 22.5201 98.8643 22.9215 98.756 23.3766L98.5012 24.0229C98.4552 24.1755 98.4227 24.312 98.4037 24.4325C98.4115 24.5209 98.3924 24.6414 98.3465 24.794C98.3084 25.035 98.2863 25.2894 98.2802 25.5573C98.2716 25.7957 98.35 26.0116 98.5156 26.2049C98.6786 26.3687 98.8728 26.3813 99.0982 26.2425C99.353 26.1012 99.5515 25.9946 99.6937 25.9226C100.804 25.379 101.906 24.7322 102.998 23.9823C104.09 23.2323 105.039 22.3762 105.845 21.4139L106.329 20.8365C106.651 20.4516 106.982 19.9917 107.321 19.4568C107.687 18.8898 107.837 18.4013 107.771 17.9912C107.747 17.726 107.625 17.514 107.403 17.3554C107.181 17.1968 107.056 16.9553 107.027 16.6311C106.985 16.1595 107.167 15.6979 107.573 15.2462C108.008 14.7919 108.55 14.5362 109.198 14.4789C109.699 14.4347 110.156 14.5577 110.568 14.8481C110.977 15.109 111.205 15.5047 111.252 16.0353C111.278 16.33 111.254 16.5697 111.182 16.7544C111.109 16.939 111.076 17.0756 111.084 17.164C111.087 17.1935 111.168 17.4388 111.327 17.9C111.514 18.3291 111.778 18.7959 112.119 19.3004C112.461 19.8049 112.872 20.2587 113.353 20.6618C113.864 21.0622 114.43 21.2499 115.052 21.2247C115.17 21.2143 115.389 21.18 115.711 21.1219C116.033 21.0638 116.354 21.0057 116.676 20.9476C117.024 20.8574 117.342 20.7551 117.629 20.6407C117.916 20.5262 118.113 20.4048 118.221 20.2765C118.274 20.2124 118.345 20.1764 118.434 20.1686C118.611 20.153 118.75 20.2149 118.851 20.3545C118.95 20.4646 119.003 20.5638 119.011 20.6523C119.043 21.006 118.968 21.3393 118.788 21.6522C118.607 21.9652 118.35 22.2405 118.014 22.478C117.708 22.713 117.354 22.9076 116.952 23.0619C116.547 23.1868 116.123 23.2688 115.681 23.3078C115.151 23.3546 114.614 23.3278 114.07 23.2273C113.524 23.0973 113.03 22.8884 112.589 22.6006C112.495 22.5495 112.352 22.4433 112.16 22.2821C111.965 22.0914 111.756 21.9167 111.534 21.7581C111.31 21.57 111.088 21.4114 110.869 21.2822C110.647 21.1236 110.477 21.0495 110.359 21.0599C110.217 21.1318 109.939 21.3494 109.525 21.7127C109.139 22.0439 108.697 22.4245 108.2 22.8545C107.731 23.2524 107.246 23.6517 106.747 24.0522C106.274 24.4207 105.898 24.7064 105.619 24.9092C104.863 25.4216 104.086 25.8764 103.289 26.2735C102.493 26.6705 101.589 27.0325 100.578 27.3594C100.289 27.4444 100.002 27.5589 99.7172 27.7028C99.465 27.8736 99.1915 27.972 98.8967 27.998C98.0715 28.0709 97.4204 28.0987 96.9436 28.0814C96.4963 28.0615 96.1309 27.9601 95.8474 27.7772C95.5613 27.5648 95.3251 27.2441 95.1387 26.815C94.9202 26.359 94.6726 25.7422 94.396 24.9646C94.364 24.9378 94.344 24.8801 94.3362 24.7917C94.3128 24.5264 94.4181 24.2052 94.6521 23.8281C94.8836 23.4215 95.1995 22.9629 95.6 22.4523C96.0005 21.9416 96.472 21.395 97.0146 20.8124C97.5547 20.2004 98.119 19.5268 98.7076 18.7916Z" fill="#D85B31"/>
<path d="M126.191 14.1368C126.245 14.0727 126.375 14.0315 126.581 14.0133C126.905 13.9847 127.284 14.07 127.717 14.2694C128.18 14.4661 128.589 14.5489 128.942 14.5177C129.62 14.4578 130.098 14.4898 130.377 14.6138C130.655 14.7377 130.804 14.9176 130.825 15.1534C130.854 15.4776 130.714 15.9059 130.404 16.4382C130.092 16.941 129.741 17.5067 129.351 18.1352C128.988 18.7316 128.66 19.221 128.367 19.6033C128.074 19.9857 127.821 20.3199 127.609 20.606C127.426 20.8895 127.284 21.1396 127.185 21.3563C127.115 21.5704 127.091 21.8101 127.115 22.0754C127.143 22.3996 127.263 22.5821 127.475 22.6228C127.686 22.6635 127.984 22.667 128.367 22.6332C128.836 22.562 129.344 22.4281 129.891 22.2312C130.438 22.0344 130.984 21.8229 131.528 21.5966C132.07 21.3408 132.582 21.0876 133.065 20.837C133.575 20.5544 134.028 20.3064 134.425 20.0932C134.994 19.8053 135.542 19.4598 136.071 19.0567C136.6 18.6535 136.982 18.4415 137.218 18.4207C137.395 18.4051 137.491 18.4857 137.507 18.6626C137.538 19.0162 137.532 19.2841 137.489 19.4662C137.445 19.6482 137.383 19.7874 137.303 19.8836C137.219 19.9504 137.121 20.0184 137.009 20.0878C136.923 20.1251 136.841 20.2065 136.763 20.3323C136.097 20.8663 135.456 21.3388 134.839 21.7498C134.221 22.1607 133.587 22.5435 132.935 22.8981C132.283 23.2527 131.556 23.5991 130.754 23.9372C129.979 24.2433 129.087 24.5598 128.076 24.8867C127.877 24.9933 127.633 25.0891 127.344 25.1741C127.084 25.2565 126.809 25.3401 126.519 25.4251C126.259 25.5075 126.013 25.5738 125.779 25.6241C125.546 25.6744 125.356 25.7061 125.209 25.7191C124.501 25.7816 123.95 25.5926 123.554 25.1523C123.159 24.7119 122.938 24.2265 122.891 23.6959C122.826 22.9591 122.994 22.3353 123.394 21.8247C123.824 21.3115 124.29 20.8693 124.792 20.4982C125.294 20.1272 125.754 19.7895 126.173 19.4852C126.619 19.1488 126.823 18.7743 126.787 18.3616C126.774 18.2143 126.69 18.1029 126.534 18.0275C126.409 17.9494 126.255 17.8888 126.073 17.8454C125.92 17.7995 125.755 17.7843 125.579 17.8C125.429 17.7835 125.324 17.7779 125.265 17.7831C125.123 17.855 124.967 17.943 124.798 18.0471C124.627 18.1216 124.43 18.243 124.207 18.4112C123.898 18.6167 123.438 18.9544 122.826 19.4243C122.241 19.8621 121.585 20.3359 120.857 20.8457C120.159 21.3529 119.446 21.8466 118.716 22.3269C117.983 22.7778 117.315 23.119 116.712 23.3505C116.656 23.3851 116.568 23.4077 116.451 23.4181C116.097 23.4493 115.903 23.2734 115.869 22.8902C115.848 22.6544 115.928 22.38 116.108 22.0671C116.289 21.7541 116.59 21.4602 117.011 21.1854C118.052 20.529 118.948 19.9152 119.7 19.3439C120.481 18.7699 121.149 18.2654 121.705 17.8301C122.258 17.3654 122.742 16.9662 123.159 16.6324C123.572 16.2692 123.96 15.9527 124.322 15.6831L126.191 14.1368Z" fill="#D85B31"/>
<path d="M149.331 16.1035C149.286 16.256 149.241 16.4233 149.198 16.6054C149.181 16.7554 149.15 16.9066 149.104 17.0592C149.231 17.4935 149.482 17.813 149.857 18.0175C150.231 18.2221 150.61 18.3075 150.993 18.2736C151.465 18.232 151.858 18.1379 152.172 17.9914C152.483 17.8154 152.763 17.6272 153.013 17.4269C153.292 17.2241 153.559 17.052 153.814 16.9107C154.066 16.7399 154.369 16.6388 154.723 16.6076C154.958 16.5868 155.088 16.709 155.112 16.9743C155.138 17.269 155.071 17.5274 154.913 17.7493C154.241 18.5512 153.552 19.1616 152.847 19.5803C152.141 19.9991 151.316 20.2501 150.373 20.3334C150.049 20.362 149.781 20.356 149.57 20.3153C149.385 20.2424 149.215 20.1683 149.06 20.0929C148.932 19.9854 148.789 19.8793 148.631 19.7744C148.5 19.6374 148.311 19.5204 148.065 19.4233C148.036 19.4259 148.004 19.3991 147.969 19.3427C147.932 19.2569 147.881 19.1871 147.817 19.1334L146.225 20.7888C146.088 20.9197 145.951 21.0506 145.814 21.1815C145.707 21.3099 145.582 21.41 145.44 21.482L144.675 21.9059C143.83 22.4261 142.942 22.965 142.011 23.5224C141.107 24.0478 140.071 24.4215 138.902 24.6435C137.437 24.5353 136.428 24.2085 135.875 23.6633C135.292 23.1207 134.951 22.2893 134.852 21.1693L135.086 20.7922C135.2 20.396 135.334 20.0575 135.487 19.7766C135.611 19.4983 135.776 19.1867 135.984 18.8416L137.696 17.0418C138.077 16.6517 138.648 16.2152 139.407 15.7323C140.193 15.2173 140.863 14.7274 141.416 14.2627C142.377 13.7026 143.258 13.2535 144.06 12.9154C144.891 12.5746 145.66 12.373 146.368 12.3106C147.016 12.2533 147.537 12.2667 147.931 12.3508C148.324 12.4348 148.62 12.5869 148.818 12.8071C149.042 12.9952 149.185 13.2648 149.245 13.6159C149.333 13.9349 149.396 14.3155 149.435 14.7576C149.454 14.9639 149.446 15.217 149.413 15.517L149.331 16.1035ZM144.265 15.7488C144.206 15.754 144.079 15.8247 143.883 15.9608C143.684 16.0674 143.444 16.2075 143.163 16.3809C142.908 16.5222 142.639 16.6795 142.358 16.8529C142.105 17.0237 141.881 17.1772 141.686 17.3133C141.632 17.3775 141.507 17.4776 141.311 17.6137C141.113 17.7204 140.986 17.8058 140.933 17.8699L140.441 18.3589C140.307 18.5193 140.186 18.6636 140.078 18.7919C139.971 18.9202 139.847 19.0351 139.708 19.1365C139.482 19.2753 139.249 19.489 139.007 19.7777C138.757 19.9779 138.557 20.2332 138.406 20.5436C138.331 20.6988 138.3 20.8501 138.313 20.9974C138.349 21.4101 138.553 21.7039 138.925 21.879C139.324 22.022 139.657 22.0966 139.925 22.1026C140.212 21.9882 140.563 21.9274 140.978 21.9205C141.394 21.9135 141.797 21.7739 142.189 21.5017L143.24 20.7851C143.272 20.812 143.413 20.7253 143.662 20.525C143.912 20.3248 144.175 20.1084 144.452 19.8761C144.755 19.6117 145.031 19.3793 145.281 19.1791C145.531 18.9788 145.686 18.8908 145.748 18.9151C146.256 18.2761 146.5 17.6753 146.48 17.1127C146.489 16.5475 146.406 16.1093 146.23 15.7981C145.987 15.4037 145.693 15.2663 145.347 15.3859C145.001 15.5056 144.641 15.6266 144.265 15.7488Z" fill="#D85B31"/>
<path d="M158.027 21.8854C157.48 22.0822 156.894 22.3419 156.269 22.6644C155.676 23.0138 155.032 23.4568 154.337 23.9935C153.415 24.9957 152.982 25.8063 153.036 26.4252C153.049 26.5726 153.089 26.6879 153.156 26.7711C153.225 26.8838 153.422 26.9258 153.746 26.8972C154.424 26.8373 154.96 26.686 155.355 26.4433C155.749 26.2005 156.066 25.92 156.305 25.6019C156.574 25.2811 156.783 24.9508 156.931 24.611C157.108 24.2685 157.29 23.9703 157.476 23.7163L158.027 21.8854ZM151.335 19.2682C151.454 18.931 151.736 18.5942 152.181 18.2578C152.627 17.9214 152.991 17.6665 153.272 17.4931C153.828 17.0579 154.279 16.6171 154.626 16.1706C154.97 15.6946 155.405 15.2404 155.931 14.8077C156.458 14.3751 156.905 13.8901 157.273 13.3526C157.639 12.7856 157.998 12.3083 158.35 11.9208C158.455 11.763 158.549 11.6508 158.632 11.584C158.715 11.5172 158.824 11.4037 158.958 11.2433C159.369 10.8505 159.678 10.4817 159.885 10.1366C160.119 9.75951 160.315 9.44524 160.471 9.19383C160.653 8.91034 160.827 8.68711 160.991 8.52412C161.154 8.36113 161.399 8.26532 161.723 8.23669C162.017 8.21066 162.278 8.30644 162.506 8.52401C162.73 8.71211 162.851 8.90932 162.87 9.11564C162.898 9.43986 162.824 9.77319 162.646 10.1156C162.495 10.426 162.303 10.7697 162.069 11.1468C161.862 11.4919 161.671 11.8504 161.495 12.2223C161.35 12.5916 161.297 12.9973 161.336 13.4394C161.364 13.7636 161.483 14.0948 161.691 14.4328C161.896 14.7414 162.014 15.0726 162.046 15.4263C162.082 15.8389 162.147 16.2342 162.24 16.6122C162.332 16.9901 162.367 17.388 162.345 17.8059L162.307 18.3884L162.351 18.3845C163.21 18.0117 164.084 17.6523 164.974 17.3064C165.891 16.9283 166.643 16.5204 167.228 16.0826C167.397 15.9785 167.649 15.8078 167.984 15.5702C168.32 15.3326 168.576 15.2061 168.753 15.1904C168.989 15.1696 169.175 15.2572 169.311 15.4531C169.447 15.649 169.52 15.8059 169.531 15.9238C169.551 16.1596 169.438 16.3923 169.191 16.6221C168.944 16.8518 168.652 17.0707 168.313 17.2788C167.973 17.4574 167.632 17.636 167.291 17.8146C166.951 17.9932 166.696 18.1346 166.527 18.2386C166.245 18.412 165.978 18.5841 165.726 18.7549C165.471 18.8962 165.173 19.0562 164.833 19.2348C164.519 19.3813 164.133 19.5491 163.674 19.7381C163.245 19.9245 162.729 20.1335 162.125 20.365C161.954 21.4495 161.614 22.4746 161.105 23.4404C160.599 24.4356 159.978 25.3073 159.242 26.0555C158.538 26.8305 157.732 27.466 156.826 27.962C155.948 28.4553 155.038 28.7436 154.095 28.8269C153.004 28.9232 152.134 28.8218 151.484 28.5228C150.804 28.2264 150.423 27.6066 150.339 26.6634C150.285 26.0444 150.499 25.4462 150.983 24.8689C151.44 24.3235 152.051 23.6755 152.816 22.9247C153.463 22.5112 154.041 22.1631 154.551 21.8804C155.088 21.5657 155.584 21.2991 156.04 21.0806C156.523 20.83 156.993 20.6102 157.452 20.4212C157.908 20.2027 158.38 19.9977 158.868 19.8061C158.895 19.774 158.933 19.6964 158.981 19.5733C159.056 19.4181 159.127 19.204 159.192 18.9309C159.257 18.6578 159.299 18.2976 159.319 17.8503C159.366 17.3709 159.373 16.7762 159.34 16.0662C159.316 15.801 159.279 15.5517 159.229 15.3185C159.176 15.0559 159.099 14.8548 158.998 14.7152C158.382 15.4824 157.736 16.0741 157.06 16.4903C156.414 16.9039 155.74 17.3495 155.04 17.8272L154.874 17.9755L152.366 19.8455L151.634 20.1329C151.482 20.087 151.39 19.8872 151.358 19.5335L151.335 19.2682Z" fill="#D85B31"/>
<path d="M168.974 21.4534C168.248 21.3095 167.657 21.0053 167.2 20.5406C166.77 20.0439 166.521 19.4124 166.454 18.6461C166.438 18.4692 166.441 18.3353 166.463 18.2443C166.614 17.6071 166.731 17.077 166.812 16.6539C166.923 16.2283 167.068 15.8442 167.245 15.5018C167.42 15.1299 167.64 14.7541 167.903 14.3744C168.196 13.992 168.599 13.5109 169.112 12.9309C169.711 12.3136 170.269 11.7297 170.785 11.1792C171.3 10.6287 171.837 10.1506 172.396 9.74481C172.951 9.30959 173.559 8.95889 174.219 8.6927C174.878 8.42652 175.635 8.25569 176.49 8.18021C177.168 8.12035 177.722 8.17536 178.153 8.34524C178.582 8.48564 178.82 8.83585 178.87 9.39587C178.948 10.2801 178.809 11.0646 178.454 11.7495C178.096 12.4049 177.628 12.9957 177.051 13.522C176.471 14.0188 175.842 14.4605 175.163 14.8472C174.482 15.2044 173.843 15.5429 173.248 15.8629C173.022 16.0016 172.826 16.1377 172.66 16.2712C172.491 16.3753 172.262 16.4698 171.972 16.5547C171.742 16.6345 171.496 16.7156 171.236 16.798C170.973 16.8509 170.728 16.9319 170.5 17.0412C170.302 17.1478 170.12 17.2826 169.957 17.4456C169.82 17.5765 169.762 17.7599 169.782 17.9957C169.814 18.3494 169.975 18.6619 170.266 18.9332C170.587 19.2019 171.042 19.3102 171.632 19.2582L172.029 19.2231L173.923 18.9668C175.108 18.5948 176.151 18.1313 177.053 17.5765C177.984 17.019 178.868 16.4359 179.705 15.8273C180.459 15.2855 181.009 14.9547 181.355 14.835C181.699 14.6859 181.918 14.6516 182.015 14.7323C182.14 14.8103 182.169 14.9711 182.102 15.2147C182.061 15.4262 182.004 15.6243 181.931 15.809C181.966 15.8653 181.832 16.0257 181.528 16.2901C181.254 16.5519 181.033 16.7349 180.864 16.8389C179.508 17.9686 177.991 18.9491 176.312 19.7806C174.63 20.5826 172.797 21.19 170.814 21.6028C170.608 21.621 170.444 21.6206 170.324 21.6015C170.235 21.6093 170.145 21.6024 170.054 21.5807C169.966 21.5885 169.862 21.5829 169.741 21.5638C169.653 21.5716 169.519 21.5686 169.339 21.5548L168.974 21.4534ZM170.577 15.3858C170.636 15.3806 170.693 15.3607 170.75 15.326C170.835 15.2887 170.908 15.2675 170.967 15.2623C171.911 14.8522 172.718 14.4096 173.389 13.9345C174.058 13.4299 174.579 12.9383 174.952 12.4598C175.06 12.3314 175.111 12.2378 175.106 12.1789C175.127 12.0878 175.192 11.9782 175.299 11.8499C175.356 11.8152 175.381 11.7684 175.376 11.7094C175.368 11.621 175.363 11.5621 175.36 11.5326C175.347 11.3852 175.265 11.2886 175.112 11.2426C174.986 11.1646 174.865 11.1308 174.747 11.1412C174.481 11.1646 174.094 11.3177 173.584 11.6003C173.104 11.8804 172.629 12.2194 172.159 12.6173C171.689 13.0152 171.281 13.4374 170.934 13.8839C170.585 14.3009 170.423 14.6568 170.449 14.9515C170.475 15.2463 170.518 15.391 170.577 15.3858Z" fill="#D85B31"/>
</svg>
