<svg width="119" height="74" viewBox="0 0 119 74" fill="none" xmlns="http://www.w3.org/2000/svg">
<path d="M12.6809 62.1101C11.9339 62.9052 11.2263 63.5836 10.5583 64.1452C9.92593 64.726 9.23044 65.2959 8.47181 65.8551C7.8885 66.3012 7.28607 66.7831 6.66454 67.3007C6.07042 67.81 5.45803 68.1602 4.82738 68.3512C4.1693 68.5506 3.58352 68.5933 3.07004 68.4795C2.55656 68.3656 2.09087 68.1624 1.67295 67.8699C1.28245 67.5691 0.952199 67.2201 0.682187 66.8229C0.439594 66.4175 0.255995 66.0091 0.131389 65.5978C-0.125254 64.059 -0.00592098 62.526 0.489387 60.9988C1.01212 59.4634 1.73674 58.0015 2.66327 56.6131C3.58149 55.1974 4.62891 53.8622 5.80553 52.6077C6.97384 51.3257 8.10268 50.1604 9.19204 49.1119C10.0487 48.2836 11.0151 47.422 12.0912 46.5272C13.1946 45.6241 14.3222 44.9981 15.4738 44.6492C15.8029 44.5495 16.1539 44.4731 16.527 44.42C16.9275 44.3585 17.2993 44.3506 17.6425 44.3964C18.0047 44.4064 18.3109 44.4783 18.561 44.612C18.8111 44.7458 18.9818 44.9635 19.0732 45.2652C19.1479 45.5119 19.1583 45.7932 19.1043 46.1089C19.0694 46.3889 18.9892 46.6677 18.8637 46.9452C18.7382 47.2227 18.577 47.4811 18.3801 47.7204C18.1748 47.9322 17.953 48.0893 17.7145 48.1914C17.4951 48.2579 17.3194 48.2213 17.1873 48.0817C17.0826 47.9338 16.9601 47.7764 16.8197 47.6093C16.6793 47.4423 16.5019 47.3015 16.2875 47.1868C16.0732 47.0721 15.774 47.0729 15.3902 47.1892C14.403 47.4883 13.4836 47.9614 12.6319 48.6086C11.7802 49.2558 10.9892 50.0044 10.2588 50.8544C9.54749 51.6686 8.86652 52.5335 8.21588 53.4491C7.58435 54.329 6.98564 55.1689 6.41975 55.969C6.02338 56.5382 5.59419 57.1472 5.13217 57.7961C4.69758 58.4367 4.30286 59.1101 3.94803 59.8163C3.62061 60.5142 3.37421 61.2325 3.20881 61.9712C3.07084 62.7015 3.10984 63.4231 3.32583 64.136C3.44213 64.5199 3.63363 64.8062 3.90033 64.9948C4.15872 65.156 4.45659 65.2005 4.79394 65.1282C5.47112 64.8931 6.25759 64.4752 7.15332 63.8746C8.07648 63.2656 9.04451 62.5083 10.0574 61.6027C11.0894 60.6614 12.1389 59.58 13.2059 58.3587C14.2645 57.1099 15.2994 55.7337 16.3107 54.2298C17.6062 52.2806 18.9661 50.297 20.3904 48.2789C21.8146 46.2607 23.1537 44.2085 24.4077 42.1223C25.4323 40.4647 26.4103 38.8512 27.3419 37.2817C28.3008 35.7039 29.4396 34.1764 30.7583 32.6992C31.3849 32.0004 32.0127 31.2564 32.6417 30.4671C33.2624 29.6504 33.923 28.8665 34.6235 28.1154C35.3514 27.3561 36.118 26.6748 36.9231 26.0716C37.7557 25.4601 38.6793 25.0007 39.6938 24.6933C40.1599 24.5521 40.4387 24.6323 40.5301 24.9339C40.5633 25.0436 40.5417 25.1699 40.4652 25.3128C40.3805 25.4283 40.282 25.548 40.1698 25.6717C40.0577 25.7955 39.9455 25.9193 39.8333 26.0431C39.7128 26.1395 39.6293 26.2097 39.5828 26.2537C39.1532 26.7132 38.8004 27.1793 38.5246 27.6521C38.2404 28.0974 37.9412 28.5922 37.6271 29.1364C37.0371 30.1533 36.4114 31.1512 35.7499 32.1299C35.1076 33.0729 34.5629 34.0912 34.1158 35.1846C33.8814 35.7944 33.7281 36.4247 33.6558 37.0752C33.6026 37.6901 33.4588 38.3024 33.2244 38.9123C32.8945 39.7008 32.592 40.481 32.3169 41.2528C32.0419 42.0247 31.7174 42.7816 31.3434 43.5236C30.9969 44.2572 30.6504 44.9909 30.3038 45.7245C29.9573 46.4582 29.6822 47.2301 29.4786 48.0402C29.408 48.3011 29.3809 48.4589 29.3976 48.5138C29.4225 48.596 29.4761 48.6247 29.5583 48.5998C29.7777 48.5333 30.0856 48.2155 30.4819 47.6464C30.8974 47.0415 31.3428 46.3378 31.8181 45.5352C32.2934 44.7326 32.7646 43.9163 33.2316 43.0863C33.7261 42.2479 34.1715 41.5442 34.5678 40.9751C35.5293 39.3067 36.3407 37.9831 37.0022 37.0044C37.6827 35.9899 38.3047 35.1279 38.8681 34.4184C39.4506 33.6731 40.0181 32.9773 40.5707 32.3309C41.1507 31.6762 41.8263 30.8429 42.5974 29.8309C42.9722 29.3881 43.4126 28.8655 43.9186 28.2631C44.4438 27.625 44.9951 27.0239 45.5726 26.4598C46.1418 25.8682 46.7181 25.3494 47.3014 24.9032C47.9038 24.4214 48.4929 24.0932 49.0687 23.9187C49.3429 23.8357 49.5598 23.8598 49.7193 23.9911C49.8705 24.0949 49.9669 24.2154 50.0084 24.3525C50.0998 24.6541 50.0637 24.9794 49.9 25.3284C49.7554 25.6416 49.5559 25.9715 49.3016 26.3179C49.0474 26.6644 48.7615 27.0055 48.4441 27.3411C48.1267 27.6768 47.8504 28 47.6152 28.3107L45.4988 31.1073C45.0094 31.7645 44.5719 32.3461 44.1863 32.8521C43.7924 33.3307 43.411 33.8504 43.0421 34.4112C42.6731 34.972 42.3017 35.6234 41.9277 36.3654C41.5538 37.1073 41.1295 38.0292 40.655 39.1309C40.4124 39.7133 40.2108 40.2833 40.0504 40.8408C39.9092 41.3626 39.6956 42.041 39.4097 42.876C39.1238 43.711 38.8421 44.5598 38.5645 45.4222C38.2786 46.2572 38.038 47.0935 37.8427 47.931C37.6823 48.4885 37.5797 49.0884 37.5348 49.7307C37.509 50.3373 37.5874 50.9421 37.7702 51.5454C37.9447 52.1212 38.2433 52.4648 38.6662 52.5762C39.0809 52.6601 39.5212 52.6315 39.9874 52.4902C40.4809 52.3407 40.9579 52.1364 41.4182 51.8771C41.8702 51.5905 42.2263 51.333 42.4863 51.1045C43.1901 50.562 43.8873 50.0963 44.5778 49.7075C45.2874 49.283 46.002 48.6773 46.7216 47.8905C46.8994 47.6869 47.0976 47.4024 47.3161 47.0368C47.5264 46.6438 47.7412 46.4141 47.9605 46.3476C48.0976 46.3061 48.1953 46.3813 48.2534 46.5732C48.2949 46.7103 48.3269 46.8653 48.3493 47.0381C48.3718 47.2109 48.412 47.3933 48.4702 47.5853C48.4951 47.6675 48.3327 47.9712 47.9828 48.4963C47.6247 48.994 47.1282 49.5785 46.4933 50.2498C45.8585 50.9211 45.0961 51.6161 44.2062 52.3347C43.308 53.026 42.3449 53.6021 41.3171 54.0632C41.013 54.2451 40.6773 54.4217 40.31 54.5928C39.9702 54.7557 39.622 54.8911 39.2656 54.9991C38.3333 55.2815 37.4222 55.2881 36.5324 55.0188C35.6699 54.7412 35.0933 54.1226 34.8026 53.1629C34.5534 52.3403 34.5239 51.6008 34.7142 50.9445C34.8963 50.2606 35.0479 49.5262 35.1693 48.741C35.3447 47.6401 35.6219 46.6281 36.0008 45.705C36.3989 44.7462 36.7475 43.7724 37.0467 42.7836C37.286 41.9927 37.5037 41.328 37.6999 40.7896C37.9234 40.2428 38.1129 39.7813 38.2683 39.4049C38.4428 38.9928 38.5928 38.648 38.7183 38.3705C38.8629 38.0573 38.9842 37.766 39.0823 37.4968C38.7973 37.6431 38.4183 38.0722 37.9455 38.7842C37.4727 39.4963 36.9932 40.2852 36.5071 41.1509C36.0401 41.9809 35.6059 42.7711 35.2045 43.5213C34.8306 44.2633 34.5863 44.7415 34.4716 44.9558L31.6658 50.0718C31.36 50.6435 30.9869 51.1906 30.5465 51.7132C30.1061 52.2358 29.6549 52.8215 29.1928 53.4704C28.7499 54.0836 28.3058 54.742 27.8604 55.4457C27.4341 56.1137 27.0174 56.7639 26.6102 57.3962C26.1947 58.001 25.7859 58.529 25.3837 58.9802C25.0089 59.423 24.6296 59.7026 24.2457 59.8189C23.7796 59.9601 23.3417 59.8982 22.9321 59.6331C22.5499 59.3597 22.2965 59.0174 22.1719 58.6061C22.0224 58.1125 22.0993 57.6252 22.4026 57.1441C22.7333 56.6548 23.0611 56.1064 23.3861 55.499C23.6977 55.0454 24.0076 54.4875 24.3159 53.8253C24.6159 53.1357 24.8939 52.4228 25.1499 51.6866C25.4332 50.9422 25.6934 50.2197 25.9302 49.5193C26.1671 48.8189 26.3466 48.2257 26.4687 47.7396C26.61 47.2178 26.8826 46.5365 27.2865 45.6957C27.682 44.8274 28.1158 43.8877 28.5878 42.8766C29.0515 41.838 29.5111 40.7857 29.9665 39.7197C30.4493 38.6454 30.8212 37.6496 31.0821 36.7323C31.2267 36.4191 31.4137 36.0481 31.643 35.6194C31.8915 35.1549 31.9701 34.7719 31.8787 34.4703C31.8288 34.3058 31.7354 34.2443 31.5983 34.2858C31.4886 34.319 31.3914 34.3934 31.3066 34.5089C31.0498 34.9459 30.7943 35.3377 30.54 35.6841C30.2858 36.0306 30.0219 36.3949 29.7486 36.7771C29.4943 37.1236 29.2388 37.5153 28.982 37.9523C28.7169 38.362 28.4356 38.8663 28.1381 39.4653L26.7932 41.3995C26.283 42.4822 25.6984 43.4675 25.0394 44.3557C24.3805 45.2439 23.8312 46.0988 23.3916 46.9206L21.5057 49.7371C21.1891 50.3719 20.8862 51.0025 20.597 51.629C20.327 52.2198 19.9609 52.8396 19.4989 53.4885L19.1337 53.9134C18.0834 55.1896 17.1386 56.4188 16.2993 57.6011C15.4874 58.7751 14.6698 59.8311 13.8463 60.7691L12.6809 62.1101Z" fill="#D85B31"/>
<path d="M54.4952 51.5526C54.2517 51.836 54.0203 52.0108 53.801 52.0773C53.2251 52.2517 52.7736 52.194 52.4462 51.904C52.1272 51.6414 51.9261 51.373 51.843 51.0988C51.7184 50.6875 51.6927 50.3061 51.7658 49.9547C51.8581 49.5675 52.0081 49.2227 52.2158 48.9202C52.4236 48.6178 52.6479 48.3702 52.8889 48.1775C53.1573 47.9764 53.4012 47.8427 53.6205 47.7762L53.785 47.7264C54.2512 47.5851 54.704 47.5976 55.1435 47.7638C55.5748 47.9026 55.8734 48.2462 56.0396 48.7946C56.1592 49.387 56.0698 49.8332 55.7715 50.1331C55.4732 50.4331 55.1695 50.7646 54.8604 51.1277L54.4952 51.5526Z" fill="#D85B31"/>
<path d="M47.1604 68.9526C47.0922 69.1229 47.0652 69.2808 47.0793 69.4262C47.0934 69.5716 47.0992 69.6896 47.0967 69.7801C47.1881 70.0818 47.4108 70.2239 47.7647 70.2064C48.0913 70.1973 48.3917 70.1512 48.6658 70.0681C49.1594 69.9186 49.7635 69.541 50.4781 68.9354C51.201 68.3571 52.022 67.5097 52.941 66.393C53.8409 65.3121 54.8347 63.9482 55.9225 62.3015C56.9911 60.6905 58.1275 58.7596 59.3316 56.5088C59.6698 55.7477 59.9532 55.0033 60.1817 54.2754C60.3828 53.5559 60.7323 52.8812 61.23 52.2514C60.0784 52.6003 59.0535 53.1204 58.1552 53.8117C57.2379 54.5386 56.2196 55.4758 55.1003 56.6232C53.8306 57.9658 52.7678 59.2008 51.9119 60.3283C51.0286 61.4641 50.2932 62.4951 49.7057 63.4215C49.1265 64.3754 48.6541 65.237 48.2885 66.0063C47.9311 66.8031 47.6257 67.5243 47.3723 68.1699L47.1604 68.9526ZM46.1523 66.0698C47.3813 63.9012 48.7042 61.9437 50.121 60.1973C51.5377 58.4509 53.0999 56.6903 54.8075 54.9157C55.842 53.8838 56.7631 53.021 57.5708 52.3272C58.3593 51.6692 59.0727 51.1088 59.7108 50.6461C60.3216 50.1916 60.8721 49.7854 61.3623 49.4273C61.8883 49.0883 62.3881 48.7124 62.8617 48.2994C63.2689 47.6672 63.718 46.8276 64.2092 45.7807C64.7277 44.7255 65.2558 43.6525 65.7935 42.5615L66.7433 40.6572C67.0981 39.951 67.3927 39.2929 67.6271 38.6831C67.8888 38.0649 68.1356 37.4962 68.3675 36.9769C68.591 36.4302 68.8229 35.9109 69.063 35.419C69.3306 34.9189 69.6613 34.4295 70.0552 33.9509C70.2655 33.5579 70.4221 33.1363 70.5252 32.6859C70.6473 32.1999 70.7778 31.7412 70.9166 31.31C71.0745 30.8431 71.2586 30.4131 71.4688 30.0201C71.6708 29.5997 71.8685 29.1656 72.0622 28.7177C72.6347 27.3468 73.1022 26.1724 73.4645 25.1944C73.8268 24.2165 74.1634 23.3512 74.4742 22.5984C74.7767 21.8182 75.0547 21.1053 75.3081 20.4598C75.5807 19.7785 75.8903 19.071 76.2368 18.3373L76.5148 17.6244C76.6128 17.3552 76.6959 17.1355 76.7641 16.9652C76.8596 16.7865 76.8825 16.6149 76.8327 16.4504C76.7828 16.2859 76.6756 16.2286 76.5111 16.2784C76.2918 16.3449 75.9864 16.5721 75.595 16.9601C75.2228 17.3124 74.8206 17.7635 74.3885 18.3135C73.7536 18.9848 73.194 19.5585 72.7096 20.0346C72.2442 20.4749 71.8117 20.8754 71.4121 21.236C71.0398 21.5882 70.6991 21.9459 70.39 22.309C70.1 22.6363 69.8129 23.0227 69.5287 23.468C69.0559 24.1801 68.6367 24.9208 68.271 25.6901C67.9245 26.4238 67.5065 27.1192 67.0171 27.7764C66.5659 28.3622 66.1803 28.8681 65.8604 29.2944C65.5405 29.7206 65.2563 30.1659 65.0078 30.6304C64.7593 31.0948 64.5371 31.5963 64.3409 32.1347C64.1365 32.6456 63.942 33.2883 63.7575 34.0627C63.7276 34.1616 63.6732 34.3277 63.5942 34.5612C63.5427 34.7864 63.472 35.0473 63.3823 35.3439C63.32 35.6322 63.2713 35.9164 63.2364 36.1964C63.1932 36.449 63.1965 36.6575 63.2463 36.822C63.3045 37.014 63.4295 37.0809 63.6215 37.0227C63.8957 36.9396 64.1175 36.7826 64.287 36.5516C64.4566 36.3207 64.6124 36.0938 64.7545 35.8712C64.9157 35.6128 65.081 35.3681 65.2505 35.1371C65.4475 34.8978 65.6968 34.7325 65.9984 34.6411C66.4645 34.4999 66.7599 34.6349 66.8845 35.0462C66.9842 35.3753 66.9098 35.772 66.6613 36.2365C66.4403 36.6926 66.115 37.1504 65.6854 37.6099C65.2475 38.0419 64.756 38.4453 64.2109 38.82C63.6849 39.1589 63.1614 39.4073 62.6404 39.5652C62.0372 39.7479 61.4884 39.7645 60.994 39.6149C60.5271 39.457 60.1939 39.049 59.9946 38.3909C59.8367 37.87 59.7927 37.3295 59.8626 36.7695C59.9241 36.182 60.0446 35.5917 60.2241 34.9985C60.431 34.3969 60.6558 33.8049 60.8985 33.2225C61.1603 32.6043 61.4029 32.0219 61.6265 31.4752C61.9971 30.5247 62.4338 29.6439 62.9365 28.833C63.4584 27.9864 64.0064 27.1767 64.5806 26.404C65.1548 25.6314 65.7468 24.8682 66.3568 24.1147C66.9667 23.3611 67.5683 22.5801 68.1616 21.7717C69.3324 20.3991 70.583 19.0922 71.9133 17.851C73.2711 16.6014 74.6371 15.3793 76.0115 14.1845C76.7917 13.4991 77.4527 12.8648 77.9945 12.2815C78.5637 11.69 79.1375 11.2617 79.7158 10.9967L79.9214 10.9344C80.3876 10.7931 80.8155 10.7234 81.2052 10.7251C81.5948 10.7268 81.852 10.9333 81.9766 11.3445C82.0514 11.5913 82.0875 11.76 82.085 11.8506C82.1016 11.9054 82.0866 11.9548 82.0401 11.9989C82.021 12.0346 81.9691 12.1102 81.8843 12.2257C81.8187 12.3055 81.7547 12.4895 81.6923 12.7778C81.7563 13.0877 81.7093 13.4762 81.5514 13.9431C81.3852 14.3826 81.2095 14.84 81.0241 15.3153L80.3859 16.766C79.9222 17.8046 79.4598 18.7978 78.9986 19.7459C78.5648 20.6856 78.1131 21.6157 77.6436 22.5363C77.1741 23.4569 76.695 24.3953 76.2064 25.3517C75.7452 26.2997 75.2732 27.3108 74.7904 28.3851C74.2494 29.2675 73.8497 30.122 73.5913 30.9488C73.3602 31.7672 73.0702 32.5885 72.7212 33.4127C71.9766 35.1052 71.1797 36.7237 70.3304 38.2682C69.4811 39.8128 68.7374 41.3104 68.0992 42.7611C67.6928 43.6925 67.397 44.3958 67.2116 44.8711C67.0263 45.3463 66.8888 45.7323 66.799 46.0289C66.7093 46.3255 66.6291 46.6043 66.5584 46.8652C66.4878 47.1261 66.3461 47.4983 66.1334 47.9818C66.2571 48.094 66.4877 48.114 66.8251 48.0417C67.1707 47.9969 67.474 48.0098 67.7349 48.0804C68.0373 48.2882 68.3082 48.4905 68.5474 48.6874C68.8141 48.8761 69.0534 49.073 69.2653 49.2782C69.2769 49.5142 69.2146 49.8025 69.0783 50.1432C68.9694 50.4755 68.8095 50.6886 68.5984 50.7825C68.3458 50.7393 68.0575 50.677 67.7335 50.5955C67.4452 50.5332 67.1735 50.5257 66.9184 50.573C66.4772 50.7965 66.1057 50.9539 65.8041 51.0453C65.6944 51.0785 65.5943 51.0939 65.5038 51.0914C65.4215 51.1163 65.3392 51.1412 65.257 51.1662C65.1199 51.2077 64.9828 51.2492 64.8457 51.2908C64.7443 51.3514 64.6292 51.4162 64.5004 51.4852C64.2902 51.8782 63.9898 52.4182 63.5992 53.1053C63.2361 53.7841 62.858 54.5124 62.4649 55.2901C62.0719 56.0678 61.6747 56.8317 61.2733 57.582C60.8719 58.3323 60.5333 58.9438 60.2574 59.4165C59.3998 60.9337 58.4621 62.2356 57.4442 63.3223C56.4263 64.4091 55.5687 65.4323 54.8716 66.3919C54.0157 67.5193 53.2512 68.4545 52.5781 69.1972C51.9051 69.94 51.2947 70.544 50.7472 71.0093C50.2079 71.5019 49.6944 71.882 49.2066 72.1496C48.7189 72.4171 48.2461 72.6351 47.7883 72.8038C46.856 73.0862 46.1028 73.1198 45.5287 72.9046C44.9354 72.7251 44.4872 72.3819 44.1839 71.875C44.0726 71.31 44.1026 70.7172 44.2738 70.0965C44.4259 69.5116 44.7134 68.7808 45.1364 67.9043L46.1523 66.0698Z" fill="#D85B31"/>
<path d="M82.2095 43.1563C81.9661 43.4397 81.7346 43.6145 81.5153 43.681C80.9395 43.8554 80.4879 43.7977 80.1605 43.5077C79.8415 43.2451 79.6404 42.9767 79.5574 42.7025C79.4328 42.2912 79.407 41.9098 79.4802 41.5584C79.5724 41.1712 79.7224 40.8264 79.9302 40.5239C80.1379 40.2215 80.3623 39.9739 80.6032 39.7812C80.8716 39.5801 81.1155 39.4464 81.3349 39.3799L81.4994 39.3301C81.9655 39.1888 82.4183 39.2013 82.8579 39.3675C83.2891 39.5063 83.5878 39.8499 83.7539 40.3983C83.8735 40.9907 83.7842 41.4369 83.4859 41.7369C83.1876 42.0368 82.8838 42.3683 82.5747 42.7314L82.2095 43.1563Z" fill="#D85B31"/>
<path d="M96.6598 33.7492C97.0162 33.6412 97.2958 33.5265 97.4986 33.4052C97.7204 33.2482 97.9107 33.0858 98.0694 32.918C98.2282 32.7501 98.3923 32.5507 98.5618 32.3198C98.7587 32.0805 99.0242 31.8204 99.3582 31.5396C99.8045 31.135 100.142 30.7183 100.372 30.2896C100.62 29.8252 100.81 29.3636 100.94 28.905C101.062 28.4189 101.18 27.9191 101.294 27.4057C101.408 26.8922 101.586 26.3442 101.829 25.7618L103.581 22.3569L104.317 20.3379C104.521 19.8269 104.683 19.3737 104.803 18.9782C104.914 18.5553 105.025 18.1777 105.133 17.8453C105.234 17.4856 105.339 17.1395 105.448 16.8071C105.575 16.4391 105.717 16.0668 105.873 15.6905C106.164 14.9734 106.477 14.3249 106.81 13.745C107.135 13.1377 107.461 12.485 107.788 11.7871L109.249 8.60531C109.49 8.11344 109.709 7.70258 109.909 7.37273C110.108 7.04288 110.313 6.5319 110.522 5.83979C110.302 5.60712 110.008 5.4268 109.64 5.29882C109.272 5.17084 108.921 5.05242 108.589 4.94355C108.032 4.78315 107.524 4.78727 107.066 4.95591C106.6 5.09713 106.112 5.21509 105.602 5.30977C105.237 5.39035 104.913 5.45846 104.631 5.51411C104.34 5.54234 104.03 5.6063 103.701 5.70598C102.796 5.98012 102.038 6.34441 101.428 6.79886C100.817 7.25332 100.267 7.80915 99.7773 8.46634C99.5828 8.61506 99.3007 8.82027 98.931 9.08197C98.5886 9.33537 98.2588 9.6299 97.9413 9.96556C97.6239 10.3012 97.3738 10.6614 97.191 11.0461C97.0081 11.4308 96.979 11.8288 97.1036 12.2401C97.2116 12.5965 97.3786 12.9501 97.6046 13.3007C97.8223 13.6239 97.9976 14.0049 98.1305 14.4436C98.172 14.5807 98.1944 14.7536 98.1977 14.9621C98.2285 15.1624 98.2002 15.3655 98.113 15.5716C98.0531 15.7693 97.9343 15.97 97.7565 16.1735C97.5703 16.3496 97.299 16.4917 96.9426 16.5997C96.7232 16.6662 96.4735 16.6819 96.1935 16.647C95.9326 16.5764 95.6634 16.4783 95.3859 16.3528C95.1358 16.219 94.9049 16.0495 94.693 15.8443C94.4811 15.639 94.3378 15.413 94.2631 15.1662C94.18 14.8921 94.1298 14.578 94.1123 14.224L94.0251 13.9361C93.751 13.0313 93.7689 12.0529 94.0789 11.001C94.4163 9.94082 95.1504 8.95502 96.2813 8.04361C96.809 7.31496 97.3466 6.718 97.8942 6.25274C98.4335 5.76006 99.1443 5.29024 100.027 4.84328L100.964 4.37971C100.991 4.3714 101.019 4.3631 101.046 4.35479C101.065 4.31906 101.089 4.29704 101.116 4.28874C101.374 4.15083 101.64 4.04034 101.914 3.95727C102.18 3.84678 102.459 3.73213 102.753 3.61333C103.438 3.40566 104.077 3.24201 104.669 3.12241C105.281 2.96707 105.895 2.87073 106.513 2.83338C107.158 2.78772 107.823 2.81061 108.509 2.90206C109.187 2.96608 109.963 3.1053 110.836 3.31973L111.133 3.40948C111.268 3.45851 111.494 3.46476 111.812 3.42822C112.066 3.08176 112.258 2.72449 112.386 2.35642C112.541 1.98004 112.664 1.64354 112.753 1.34692C112.862 1.01457 112.974 0.741215 113.089 0.526854C113.222 0.276765 113.413 0.114339 113.659 0.0395754C114.016 -0.0684165 114.335 0.0446049 114.615 0.37864C114.888 0.685255 115.061 0.961952 115.136 1.20873C115.369 1.97648 115.281 2.87134 114.872 3.89331C114.736 4.23396 114.709 4.54139 114.792 4.81558C114.834 4.95268 114.977 5.17869 115.222 5.49362C115.486 5.77281 115.767 6.10684 116.064 6.49572C116.389 6.87629 116.691 7.27887 116.969 7.70347C117.267 8.09234 117.469 8.46501 117.577 8.82147C118.167 10.7683 118.427 12.6652 118.358 14.5123C118.281 16.3319 118.002 18.078 117.521 19.7505C117.031 21.3956 116.404 22.9327 115.64 24.3618C114.894 25.7552 114.139 27.0168 113.373 28.1468L112.537 29.3881C111.867 30.3394 111.24 31.233 110.655 32.0688C110.07 32.9046 109.474 33.654 108.866 34.3171C108.259 34.9801 107.636 35.5429 106.998 36.0057C106.368 36.4959 105.697 36.849 104.984 37.065C104.161 37.3142 103.448 37.3806 102.844 37.2642C102.248 37.1753 101.708 37.0244 101.225 36.8117C100.769 36.5907 100.366 36.3983 100.017 36.2346C99.66 36.0434 99.3031 36.0019 98.9466 36.1099C98.6999 36.1846 98.4643 36.3458 98.2399 36.5934C97.876 36.9731 97.4339 37.3914 96.9138 37.8484C96.4293 38.3244 95.9229 38.7772 95.3944 39.2068C94.8659 39.6363 94.3387 40.0205 93.8127 40.3595C93.3142 40.6902 92.8593 40.9178 92.448 41.0424C91.8996 41.2086 91.3179 41.265 90.7031 41.2118C90.124 41.1777 89.7763 40.9687 89.66 40.5848C89.5104 40.0913 89.5707 39.5491 89.8408 38.9584C90.1109 38.3676 90.5305 37.7765 91.0997 37.1849C91.6689 36.5934 92.3507 36.0276 93.145 35.4876C93.9668 34.9392 94.8451 34.4786 95.7799 34.1056L96.6598 33.7492ZM103.357 27.5441C103.327 27.643 103.229 27.9122 103.063 28.3517C102.896 28.7913 102.725 29.2624 102.548 29.765C102.362 30.2403 102.2 30.6935 102.062 31.1248C101.95 31.5477 101.911 31.814 101.944 31.9236C102.019 32.1704 102.168 32.3649 102.39 32.507C102.605 32.6216 102.874 32.7197 103.198 32.8011C103.514 32.8552 103.853 32.8872 104.215 32.8972C104.577 32.9072 104.944 32.9309 105.314 32.9683C105.8 32.7913 106.311 32.5018 106.847 32.0997C107.376 31.6702 107.919 31.1912 108.478 30.6628C109.028 30.107 109.56 29.5416 110.074 28.9666C110.608 28.356 111.091 27.7756 111.523 27.2256C112.321 26.2053 113.044 25.1331 113.692 24.009C114.331 22.8574 114.827 21.6294 115.18 20.3249C115.525 18.993 115.709 17.5751 115.732 16.0712C115.747 14.5399 115.548 12.8939 115.134 11.1332L115.021 10.3144C114.725 9.53584 114.357 8.9139 113.917 8.44858C113.496 7.94752 113.105 7.64672 112.745 7.54616C112.387 8.04383 112.107 8.50288 111.905 8.92329C111.695 9.31629 111.452 9.74917 111.176 10.2219C111.023 10.5077 110.828 10.8513 110.59 11.2526C110.344 11.6265 110.12 12.0236 109.918 12.444C109.708 12.837 109.535 13.2039 109.399 13.5445C109.29 13.8769 109.26 14.1253 109.31 14.2898C109.264 14.633 109.175 14.9296 109.041 15.1797C108.907 15.4298 108.765 15.6524 108.615 15.8477C108.492 16.0346 108.382 16.2174 108.287 16.396C108.183 16.5473 108.156 16.7051 108.206 16.8696C108.078 17.2377 107.978 17.5522 107.908 17.8131C107.856 18.0383 107.791 18.2676 107.712 18.5011C107.633 18.7345 107.527 18.9763 107.393 19.2264C107.287 19.4682 107.124 19.7719 106.906 20.1374C106.821 20.2529 106.711 20.4357 106.578 20.6858C106.471 20.9276 106.355 21.1872 106.23 21.4647C106.124 21.7065 106.017 21.9483 105.911 22.1901C105.804 22.4319 105.723 22.6063 105.665 22.7135L103.357 27.5441Z" fill="#D85B31"/>
</svg>